<svg width="160" height="43" viewBox="0 0 160 43" fill="none" xmlns="http://www.w3.org/2000/svg">
<path d="M22 40.6207C33.0457 40.6207 42 31.9752 42 21.3103C42 10.6455 33.0457 2 22 2C10.9543 2 2 10.6455 2 21.3103C2 31.9752 10.9543 40.6207 22 40.6207Z" stroke="#0097A7" stroke-width="3"/>
<path d="M20.85 29.275C20.3333 29.275 19.8917 29.0583 19.525 28.625C19.175 28.175 18.8333 27.4417 18.5 26.425C18.3333 25.925 18.1917 25.4417 18.075 24.975C17.975 24.4917 17.9 24.025 17.85 23.575C17.6333 23.9083 17.4333 24.1333 17.25 24.25C17.0833 24.35 16.8333 24.4 16.5 24.4C15.6833 24.4 14.8167 24.3917 13.9 24.375C12.9833 24.3417 12.1667 24.3167 11.45 24.3C11.4167 24.6 11.3833 24.9083 11.35 25.225C11.3333 25.525 11.325 25.825 11.325 26.125C11.325 26.3917 11.3333 26.6583 11.35 26.925C11.3833 27.1917 11.4083 27.45 11.425 27.7C11.475 28.1667 11.2917 28.5417 10.875 28.825C10.4583 29.1083 9.94167 29.25 9.325 29.25C8.79167 29.25 8.525 29.0167 8.525 28.55C8.525 28.2667 8.6 27.8417 8.75 27.275C8.83333 26.8917 8.9 26.5667 8.95 26.3C9 26.0167 9.025 25.7917 9.025 25.625C9.025 25.1583 8.88333 24.8417 8.6 24.675C8.36667 24.5417 8.25 24.3667 8.25 24.15C8.25 23.95 8.29167 23.7083 8.375 23.425C8.475 23.1417 8.6 22.8833 8.75 22.65C8.9 22.4 9.04167 22.225 9.175 22.125C9.29167 22.0583 9.43333 22 9.6 21.95C9.76667 21.9 9.975 21.8667 10.225 21.85C10.875 19.9833 11.6 18.375 12.4 17.025C13.2167 15.6583 14.0833 14.6083 15 13.875C15.9167 13.125 16.85 12.75 17.8 12.75C18.3833 12.75 18.8083 12.95 19.075 13.35C19.3417 13.7333 19.475 14.3833 19.475 15.3V16.425C19.475 18.1083 19.6 19.6583 19.85 21.075C20.1 22.4917 20.4083 23.6417 20.775 24.525C21.1417 25.4583 21.65 26.225 22.3 26.825C22.5 26.9917 22.6333 27.1417 22.7 27.275C22.7667 27.3917 22.8 27.5167 22.8 27.65C22.8 27.9 22.7 28.15 22.5 28.4C22.3167 28.65 22.075 28.8583 21.775 29.025C21.475 29.1917 21.1667 29.275 20.85 29.275ZM12.2 21.7C13.0167 21.6667 13.7333 21.6417 14.35 21.625C14.9667 21.5917 15.4833 21.575 15.9 21.575H17.65C17.6167 21.1083 17.5833 20.6167 17.55 20.1C17.5333 19.5833 17.525 19.0417 17.525 18.475V17.025C17.525 16.5417 17.4667 16.225 17.35 16.075C17.25 15.9083 17.05 15.825 16.75 15.825C15.9333 15.825 15.1167 16.3583 14.3 17.425C13.4833 18.4917 12.7833 19.9167 12.2 21.7Z" fill="#0097A7"/>
<path d="M63.42 32.33C62.8 32.33 62.27 32.07 61.83 31.55C61.41 31.01 61 30.13 60.6 28.91C60.4 28.31 60.23 27.73 60.09 27.17C59.97 26.59 59.88 26.03 59.82 25.49C59.56 25.89 59.32 26.16 59.1 26.3C58.9 26.42 58.6 26.48 58.2 26.48C57.22 26.48 56.18 26.47 55.08 26.45C53.98 26.41 53 26.38 52.14 26.36C52.1 26.72 52.06 27.09 52.02 27.47C52 27.83 51.99 28.19 51.99 28.55C51.99 28.87 52 29.19 52.02 29.51C52.06 29.83 52.09 30.14 52.11 30.44C52.17 31 51.95 31.45 51.45 31.79C50.95 32.13 50.33 32.3 49.59 32.3C48.95 32.3 48.63 32.02 48.63 31.46C48.63 31.12 48.72 30.61 48.9 29.93C49 29.47 49.08 29.08 49.14 28.76C49.2 28.42 49.23 28.15 49.23 27.95C49.23 27.39 49.06 27.01 48.72 26.81C48.44 26.65 48.3 26.44 48.3 26.18C48.3 25.94 48.35 25.65 48.45 25.31C48.57 24.97 48.72 24.66 48.9 24.38C49.08 24.08 49.25 23.87 49.41 23.75C49.55 23.67 49.72 23.6 49.92 23.54C50.12 23.48 50.37 23.44 50.67 23.42C51.45 21.18 52.32 19.25 53.28 17.63C54.26 15.99 55.3 14.73 56.4 13.85C57.5 12.95 58.62 12.5 59.76 12.5C60.46 12.5 60.97 12.74 61.29 13.22C61.61 13.68 61.77 14.46 61.77 15.56V16.91C61.77 18.93 61.92 20.79 62.22 22.49C62.52 24.19 62.89 25.57 63.33 26.63C63.77 27.75 64.38 28.67 65.16 29.39C65.4 29.59 65.56 29.77 65.64 29.93C65.72 30.07 65.76 30.22 65.76 30.38C65.76 30.68 65.64 30.98 65.4 31.28C65.18 31.58 64.89 31.83 64.53 32.03C64.17 32.23 63.8 32.33 63.42 32.33ZM53.04 23.24C54.02 23.2 54.88 23.17 55.62 23.15C56.36 23.11 56.98 23.09 57.48 23.09H59.58C59.54 22.53 59.5 21.94 59.46 21.32C59.44 20.7 59.43 20.05 59.43 19.37V17.63C59.43 17.05 59.36 16.67 59.22 16.49C59.1 16.29 58.86 16.19 58.5 16.19C57.52 16.19 56.54 16.83 55.56 18.11C54.58 19.39 53.74 21.1 53.04 23.24ZM71.659 32.39C70.919 32.39 70.229 32.28 69.589 32.06C68.949 31.84 68.429 31.53 68.029 31.13C67.629 30.73 67.429 30.25 67.429 29.69C67.429 29.39 67.499 29.11 67.639 28.85C67.799 28.57 68.049 28.43 68.389 28.43C68.569 28.43 68.759 28.48 68.959 28.58C69.319 28.78 69.779 28.97 70.339 29.15C70.899 29.31 71.489 29.39 72.109 29.39C72.809 29.39 73.429 29.29 73.969 29.09C74.509 28.89 74.779 28.61 74.779 28.25C74.779 27.97 74.569 27.77 74.149 27.65C73.749 27.53 73.069 27.4 72.109 27.26C71.449 27.14 70.809 27 70.189 26.84C69.569 26.68 69.059 26.41 68.659 26.03C68.259 25.63 68.059 25.05 68.059 24.29C68.059 23.55 68.259 22.84 68.659 22.16C69.079 21.46 69.699 20.88 70.519 20.42C71.339 19.96 72.339 19.73 73.519 19.73C74.139 19.73 74.739 19.8 75.319 19.94C75.899 20.08 76.379 20.29 76.759 20.57C77.139 20.85 77.329 21.2 77.329 21.62C77.329 21.98 77.199 22.31 76.939 22.61C76.699 22.91 76.409 23.16 76.069 23.36C75.749 23.54 75.479 23.63 75.259 23.63C75.099 23.63 74.909 23.52 74.689 23.3C74.349 23.02 73.969 22.83 73.549 22.73C73.149 22.61 72.749 22.55 72.349 22.55C71.749 22.55 71.259 22.64 70.879 22.82C70.519 23 70.339 23.23 70.339 23.51C70.339 23.77 70.489 23.98 70.789 24.14C71.109 24.3 71.499 24.42 71.959 24.5C72.419 24.56 72.859 24.62 73.279 24.68C74.439 24.84 75.359 25.12 76.039 25.52C76.719 25.9 77.059 26.58 77.059 27.56C77.059 28.32 76.839 29.08 76.399 29.84C75.979 30.58 75.359 31.19 74.539 31.67C73.739 32.15 72.779 32.39 71.659 32.39ZM81.3921 32.33C81.1721 32.33 80.9621 32.26 80.7621 32.12C80.5621 32 80.4821 31.83 80.5221 31.61C80.8221 30.01 81.0721 28.39 81.2721 26.75C81.4921 25.09 81.6021 23.42 81.6021 21.74C81.6021 20.26 81.5521 18.92 81.4521 17.72C81.3521 16.52 81.0321 15.37 80.4921 14.27C80.3921 14.05 80.3121 13.86 80.2521 13.7C80.1921 13.54 80.1621 13.39 80.1621 13.25C80.1621 12.87 80.3821 12.5 80.8221 12.14C81.2621 11.78 81.7321 11.6 82.2321 11.6C82.9521 11.6 83.4421 12.04 83.7021 12.92C83.9621 13.8 84.0921 15.1 84.0921 16.82C84.0921 18.88 83.9721 20.68 83.7321 22.22C83.4921 23.74 83.2821 24.9 83.1021 25.7L83.2221 25.76C83.6221 24.78 84.1321 23.84 84.7521 22.94C85.3721 22.02 86.0821 21.26 86.8821 20.66C87.7021 20.06 88.5921 19.76 89.5521 19.76C90.4921 19.76 91.2121 20.04 91.7121 20.6C92.2321 21.16 92.4921 21.83 92.4921 22.61C92.4921 23.53 92.1621 24.35 91.5021 25.07C90.8421 25.79 89.9821 26.39 88.9221 26.87C89.1821 27.55 89.5521 28.09 90.0321 28.49C90.5121 28.87 91.1221 29.06 91.8621 29.06C92.1021 29.06 92.3021 29.04 92.4621 29C92.7221 28.94 92.8521 29.19 92.8521 29.75C92.8521 30.07 92.7921 30.43 92.6721 30.83C92.5521 31.23 92.3121 31.58 91.9521 31.88C91.6121 32.16 91.0921 32.3 90.3921 32.3C89.4521 32.3 88.6821 32.03 88.0821 31.49C87.5021 30.93 87.0421 30.25 86.7021 29.45C86.3821 28.63 86.1321 27.82 85.9521 27.02C85.7921 26.28 86.0421 25.89 86.7021 25.85C87.4021 25.77 87.9921 25.56 88.4721 25.22C88.9521 24.88 89.1921 24.43 89.1921 23.87C89.1921 23.23 88.8821 22.91 88.2621 22.91C87.8621 22.91 87.4521 23.06 87.0321 23.36C86.6321 23.64 86.2521 23.98 85.8921 24.38C85.5521 24.78 85.2721 25.17 85.0521 25.55C84.7521 26.07 84.4921 26.58 84.2721 27.08C84.0521 27.58 83.8721 28.08 83.7321 28.58V29.78C83.7321 30.52 83.5121 31.13 83.0721 31.61C82.6521 32.09 82.0921 32.33 81.3921 32.33ZM106.218 32.33C105.498 32.33 105.178 32.09 105.258 31.61C105.478 30.75 105.658 29.88 105.798 29C105.958 28.1 106.038 27.24 106.038 26.42C106.038 25.36 105.968 24.59 105.828 24.11C105.708 23.61 105.538 23.27 105.318 23.09C105.098 22.89 104.828 22.74 104.508 22.64C104.368 22.58 104.238 22.5 104.118 22.4C104.018 22.3 103.968 22.16 103.968 21.98C103.968 21.7 104.078 21.39 104.298 21.05C104.518 20.71 104.828 20.42 105.228 20.18C105.648 19.92 106.118 19.79 106.638 19.79C107.318 19.79 107.788 20.03 108.048 20.51C108.308 20.97 108.438 21.58 108.438 22.34C108.438 22.84 108.388 23.4 108.288 24.02C108.188 24.64 108.088 25.2 107.988 25.7L108.048 25.73C108.368 24.67 108.758 23.69 109.218 22.79C109.698 21.89 110.268 21.16 110.928 20.6C111.608 20.04 112.388 19.76 113.268 19.76C114.168 19.76 114.878 20.07 115.398 20.69C115.918 21.29 116.178 22.18 116.178 23.36V24.02C116.758 22.8 117.458 21.78 118.278 20.96C119.118 20.14 120.128 19.73 121.308 19.73C122.268 19.73 123.018 20.05 123.558 20.69C124.098 21.33 124.368 22.13 124.368 23.09C124.368 23.47 124.328 23.84 124.248 24.2C124.168 24.54 124.078 24.88 123.978 25.22C123.898 25.54 123.818 25.87 123.738 26.21C123.658 26.55 123.618 26.89 123.618 27.23C123.618 28.43 124.128 29.21 125.148 29.57C125.288 29.63 125.398 29.7 125.478 29.78C125.558 29.84 125.598 29.96 125.598 30.14C125.598 30.32 125.538 30.58 125.418 30.92C125.318 31.26 125.108 31.58 124.788 31.88C124.468 32.16 124.008 32.3 123.408 32.3C122.628 32.3 122.028 32.02 121.608 31.46C121.188 30.88 120.978 30.15 120.978 29.27C120.978 28.83 121.018 28.37 121.098 27.89C121.178 27.41 121.278 26.95 121.398 26.51C121.498 26.11 121.578 25.73 121.638 25.37C121.718 25.01 121.758 24.7 121.758 24.44C121.758 23.96 121.638 23.61 121.398 23.39C121.178 23.17 120.878 23.06 120.498 23.06C119.858 23.06 119.278 23.26 118.758 23.66C118.258 24.06 117.808 24.58 117.408 25.22C117.028 25.86 116.698 26.56 116.418 27.32C116.438 27.5 116.448 27.74 116.448 28.04C116.468 28.32 116.478 28.57 116.478 28.79C116.478 29.17 116.448 29.57 116.388 29.99C116.348 30.41 116.258 30.76 116.118 31.04C115.958 31.42 115.718 31.73 115.398 31.97C115.098 32.21 114.688 32.33 114.168 32.33C113.948 32.33 113.738 32.28 113.538 32.18C113.338 32.1 113.238 31.96 113.238 31.76C113.238 31.68 113.298 31.33 113.418 30.71C113.538 30.07 113.658 29.29 113.778 28.37C113.898 27.45 113.958 26.55 113.958 25.67C113.958 24.71 113.858 24.05 113.658 23.69C113.458 23.31 113.158 23.12 112.758 23.12C112.258 23.12 111.778 23.33 111.318 23.75C110.878 24.17 110.468 24.71 110.088 25.37C109.728 26.03 109.408 26.72 109.128 27.44C108.868 28.16 108.658 28.83 108.498 29.45V29.78C108.498 30.52 108.288 31.13 107.868 31.61C107.468 32.09 106.918 32.33 106.218 32.33ZM132.817 32.39C131.297 32.39 130.107 31.96 129.247 31.1C128.407 30.22 127.987 29 127.987 27.44C127.987 26.02 128.297 24.73 128.917 23.57C129.537 22.41 130.367 21.49 131.407 20.81C132.467 20.11 133.627 19.76 134.887 19.76C136.087 19.76 137.047 20.06 137.767 20.66C138.487 21.24 138.847 22.02 138.847 23C138.847 23.78 138.607 24.5 138.127 25.16C137.647 25.82 137.007 26.35 136.207 26.75C135.407 27.13 134.517 27.32 133.537 27.32C132.337 27.32 131.357 27.05 130.597 26.51C130.617 27.43 130.927 28.17 131.527 28.73C132.147 29.29 132.937 29.57 133.897 29.57C134.477 29.57 135.067 29.47 135.667 29.27C136.287 29.05 136.817 28.76 137.257 28.4C137.537 28.16 137.797 28.04 138.037 28.04C138.237 28.04 138.397 28.11 138.517 28.25C138.657 28.37 138.727 28.53 138.727 28.73C138.727 29.17 138.347 29.75 137.587 30.47C136.247 31.75 134.657 32.39 132.817 32.39ZM133.267 25.34C133.987 25.34 134.587 25.19 135.067 24.89C135.547 24.59 135.787 24.21 135.787 23.75C135.787 23.37 135.627 23.08 135.307 22.88C134.987 22.66 134.547 22.55 133.987 22.55C133.247 22.55 132.597 22.75 132.037 23.15C131.497 23.53 131.107 24.07 130.867 24.77C131.147 24.95 131.507 25.09 131.947 25.19C132.387 25.29 132.827 25.34 133.267 25.34Z" fill="white"/>
<path d="M20.85 29.275C20.3333 29.275 19.8917 29.0583 19.525 28.625C19.175 28.175 18.8333 27.4417 18.5 26.425C18.3333 25.925 18.1917 25.4417 18.075 24.975C17.975 24.4917 17.9 24.025 17.85 23.575C17.6333 23.9083 17.4333 24.1333 17.25 24.25C17.0833 24.35 16.8333 24.4 16.5 24.4C15.6833 24.4 14.8167 24.3917 13.9 24.375C12.9833 24.3417 12.1667 24.3167 11.45 24.3C11.4167 24.6 11.3833 24.9083 11.35 25.225C11.3333 25.525 11.325 25.825 11.325 26.125C11.325 26.3917 11.3333 26.6583 11.35 26.925C11.3833 27.1917 11.4083 27.45 11.425 27.7C11.475 28.1667 11.2917 28.5417 10.875 28.825C10.4583 29.1083 9.94167 29.25 9.325 29.25C8.79167 29.25 8.525 29.0167 8.525 28.55C8.525 28.2667 8.6 27.8417 8.75 27.275C8.83333 26.8917 8.9 26.5667 8.95 26.3C9 26.0167 9.025 25.7917 9.025 25.625C9.025 25.1583 8.88333 24.8417 8.6 24.675C8.36667 24.5417 8.25 24.3667 8.25 24.15C8.25 23.95 8.29167 23.7083 8.375 23.425C8.475 23.1417 8.6 22.8833 8.75 22.65C8.9 22.4 9.04167 22.225 9.175 22.125C9.29167 22.0583 9.43333 22 9.6 21.95C9.76667 21.9 9.975 21.8667 10.225 21.85C10.875 19.9833 11.6 18.375 12.4 17.025C13.2167 15.6583 14.0833 14.6083 15 13.875C15.9167 13.125 16.85 12.75 17.8 12.75C18.3833 12.75 18.8083 12.95 19.075 13.35C19.3417 13.7333 19.475 14.3833 19.475 15.3V16.425C19.475 18.1083 19.6 19.6583 19.85 21.075C20.1 22.4917 20.4083 23.6417 20.775 24.525C21.1417 25.4583 21.65 26.225 22.3 26.825C22.5 26.9917 22.6333 27.1417 22.7 27.275C22.7667 27.3917 22.8 27.5167 22.8 27.65C22.8 27.9 22.7 28.15 22.5 28.4C22.3167 28.65 22.075 28.8583 21.775 29.025C21.475 29.1917 21.1667 29.275 20.85 29.275ZM12.2 21.7C13.0167 21.6667 13.7333 21.6417 14.35 21.625C14.9667 21.5917 15.4833 21.575 15.9 21.575H17.65C17.6167 21.1083 17.5833 20.6167 17.55 20.1C17.5333 19.5833 17.525 19.0417 17.525 18.475V17.025C17.525 16.5417 17.4667 16.225 17.35 16.075C17.25 15.9083 17.05 15.825 16.75 15.825C15.9333 15.825 15.1167 16.3583 14.3 17.425C13.4833 18.4917 12.7833 19.9167 12.2 21.7Z" fill="#0097A7"/>
<path d="M23.068 23.242C22.54 23.242 22.3053 23.066 22.364 22.714C22.5253 22.0833 22.6573 21.4453 22.76 20.8C22.8773 20.14 22.936 19.5093 22.936 18.908C22.936 18.1307 22.8847 17.566 22.782 17.214C22.694 16.8473 22.5693 16.598 22.408 16.466C22.2467 16.3193 22.0487 16.2093 21.814 16.136C21.7113 16.092 21.616 16.0333 21.528 15.96C21.4547 15.8867 21.418 15.784 21.418 15.652C21.418 15.4467 21.4987 15.2193 21.66 14.97C21.8213 14.7207 22.0487 14.508 22.342 14.332C22.65 14.1413 22.9947 14.046 23.376 14.046C23.8747 14.046 24.2193 14.222 24.41 14.574C24.6007 14.9113 24.696 15.3587 24.696 15.916C24.696 16.2827 24.6593 16.6933 24.586 17.148C24.5127 17.6027 24.4393 18.0133 24.366 18.38L24.41 18.402C24.6447 17.6247 24.9307 16.906 25.268 16.246C25.62 15.586 26.038 15.0507 26.522 14.64C27.0207 14.2293 27.5927 14.024 28.238 14.024C28.898 14.024 29.4187 14.2513 29.8 14.706C30.1813 15.146 30.372 15.7987 30.372 16.664V17.148C30.7973 16.2533 31.3107 15.5053 31.912 14.904C32.528 14.3027 33.2687 14.002 34.134 14.002C34.838 14.002 35.388 14.2367 35.784 14.706C36.18 15.1753 36.378 15.762 36.378 16.466C36.378 16.7447 36.3487 17.016 36.29 17.28C36.2313 17.5293 36.1653 17.7787 36.092 18.028C36.0333 18.2627 35.9747 18.5047 35.916 18.754C35.8573 19.0033 35.828 19.2527 35.828 19.502C35.828 20.382 36.202 20.954 36.95 21.218C37.0527 21.262 37.1333 21.3133 37.192 21.372C37.2507 21.416 37.28 21.504 37.28 21.636C37.28 21.768 37.236 21.9587 37.148 22.208C37.0747 22.4573 36.9207 22.692 36.686 22.912C36.4513 23.1173 36.114 23.22 35.674 23.22C35.102 23.22 34.662 23.0147 34.354 22.604C34.046 22.1787 33.892 21.6433 33.892 20.998C33.892 20.6753 33.9213 20.338 33.98 19.986C34.0387 19.634 34.112 19.2967 34.2 18.974C34.2733 18.6807 34.332 18.402 34.376 18.138C34.4347 17.874 34.464 17.6467 34.464 17.456C34.464 17.104 34.376 16.8473 34.2 16.686C34.0387 16.5247 33.8187 16.444 33.54 16.444C33.0707 16.444 32.6453 16.5907 32.264 16.884C31.8973 17.1773 31.5673 17.5587 31.274 18.028C30.9953 18.4973 30.7533 19.0107 30.548 19.568C30.5627 19.7 30.57 19.876 30.57 20.096C30.5847 20.3013 30.592 20.4847 30.592 20.646C30.592 20.9247 30.57 21.218 30.526 21.526C30.4967 21.834 30.4307 22.0907 30.328 22.296C30.2107 22.5747 30.0347 22.802 29.8 22.978C29.58 23.154 29.2793 23.242 28.898 23.242C28.7367 23.242 28.5827 23.2053 28.436 23.132C28.2893 23.0733 28.216 22.9707 28.216 22.824C28.216 22.7653 28.26 22.5087 28.348 22.054C28.436 21.5847 28.524 21.0127 28.612 20.338C28.7 19.6633 28.744 19.0033 28.744 18.358C28.744 17.654 28.6707 17.17 28.524 16.906C28.3773 16.6273 28.1573 16.488 27.864 16.488C27.4973 16.488 27.1453 16.642 26.808 16.95C26.4853 17.258 26.1847 17.654 25.906 18.138C25.642 18.622 25.4073 19.128 25.202 19.656C25.0113 20.184 24.8573 20.6753 24.74 21.13V21.372C24.74 21.9147 24.586 22.362 24.278 22.714C23.9847 23.066 23.5813 23.242 23.068 23.242Z" fill="#0097A7"/>
</svg>
