<svg width="34" height="34" viewBox="0 0 34 34" fill="none" xmlns="http://www.w3.org/2000/svg">
<path d="M16.5 32C24.5081 32 31 25.732 31 18C31 10.268 24.5081 4 16.5 4C8.49187 4 2 10.268 2 18C2 25.732 8.49187 32 16.5 32Z" stroke="#03C1D9" stroke-width="3"/>
<path d="M18.5 32C26.5081 32 33 25.732 33 18C33 10.268 26.5081 4 18.5 4C10.4919 4 4 10.268 4 18C4 25.732 10.4919 32 18.5 32Z" stroke="#0097A7" stroke-width="2"/>
<path d="M16.28 27.22C15.8667 27.22 15.5133 27.0467 15.22 26.7C14.94 26.34 14.6667 25.7533 14.4 24.94C14.2667 24.54 14.1533 24.1533 14.06 23.78C13.98 23.3933 13.92 23.02 13.88 22.66C13.7067 22.9267 13.5467 23.1067 13.4 23.2C13.2667 23.28 13.0667 23.32 12.8 23.32C12.1467 23.32 11.4533 23.3133 10.72 23.3C9.98667 23.2733 9.33333 23.2533 8.76 23.24C8.73333 23.48 8.70667 23.7267 8.68 23.98C8.66667 24.22 8.66 24.46 8.66 24.7C8.66 24.9133 8.66667 25.1267 8.68 25.34C8.70667 25.5533 8.72667 25.76 8.74 25.96C8.78 26.3333 8.63333 26.6333 8.3 26.86C7.96667 27.0867 7.55333 27.2 7.06 27.2C6.63333 27.2 6.42 27.0133 6.42 26.64C6.42 26.4133 6.48 26.0733 6.6 25.62C6.66667 25.3133 6.72 25.0533 6.76 24.84C6.8 24.6133 6.82 24.4333 6.82 24.3C6.82 23.9267 6.70667 23.6733 6.48 23.54C6.29333 23.4333 6.2 23.2933 6.2 23.12C6.2 22.96 6.23333 22.7667 6.3 22.54C6.38 22.3133 6.48 22.1067 6.6 21.92C6.72 21.72 6.83333 21.58 6.94 21.5C7.03333 21.4467 7.14667 21.4 7.28 21.36C7.41333 21.32 7.58 21.2933 7.78 21.28C8.3 19.7867 8.88 18.5 9.52 17.42C10.1733 16.3267 10.8667 15.4867 11.6 14.9C12.3333 14.3 13.08 14 13.84 14C14.3067 14 14.6467 14.16 14.86 14.48C15.0733 14.7867 15.18 15.3067 15.18 16.04V16.94C15.18 18.2867 15.28 19.5267 15.48 20.66C15.68 21.7933 15.9267 22.7133 16.22 23.42C16.5133 24.1667 16.92 24.78 17.44 25.26C17.6 25.3933 17.7067 25.5133 17.76 25.62C17.8133 25.7133 17.84 25.8133 17.84 25.92C17.84 26.12 17.76 26.32 17.6 26.52C17.4533 26.72 17.26 26.8867 17.02 27.02C16.78 27.1533 16.5333 27.22 16.28 27.22ZM9.36 21.16C10.0133 21.1333 10.5867 21.1133 11.08 21.1C11.5733 21.0733 11.9867 21.06 12.32 21.06H13.72C13.6933 20.6867 13.6667 20.2933 13.64 19.88C13.6267 19.4667 13.62 19.0333 13.62 18.58V17.42C13.62 17.0333 13.5733 16.78 13.48 16.66C13.4 16.5267 13.24 16.46 13 16.46C12.3467 16.46 11.6933 16.8867 11.04 17.74C10.3867 18.5933 9.82667 19.7333 9.36 21.16Z" fill="#07E2FA"/>
<path d="M17.28 26.22C16.8667 26.22 16.5133 26.0467 16.22 25.7C15.94 25.34 15.6667 24.7533 15.4 23.94C15.2667 23.54 15.1533 23.1533 15.06 22.78C14.98 22.3933 14.92 22.02 14.88 21.66C14.7067 21.9267 14.5467 22.1067 14.4 22.2C14.2667 22.28 14.0667 22.32 13.8 22.32C13.1467 22.32 12.4533 22.3133 11.72 22.3C10.9867 22.2733 10.3333 22.2533 9.76 22.24C9.73333 22.48 9.70667 22.7267 9.68 22.98C9.66667 23.22 9.66 23.46 9.66 23.7C9.66 23.9133 9.66667 24.1267 9.68 24.34C9.70667 24.5533 9.72667 24.76 9.74 24.96C9.78 25.3333 9.63333 25.6333 9.3 25.86C8.96667 26.0867 8.55333 26.2 8.06 26.2C7.63333 26.2 7.42 26.0133 7.42 25.64C7.42 25.4133 7.48 25.0733 7.6 24.62C7.66667 24.3133 7.72 24.0533 7.76 23.84C7.8 23.6133 7.82 23.4333 7.82 23.3C7.82 22.9267 7.70667 22.6733 7.48 22.54C7.29333 22.4333 7.2 22.2933 7.2 22.12C7.2 21.96 7.23333 21.7667 7.3 21.54C7.38 21.3133 7.48 21.1067 7.6 20.92C7.72 20.72 7.83333 20.58 7.94 20.5C8.03333 20.4467 8.14667 20.4 8.28 20.36C8.41333 20.32 8.58 20.2933 8.78 20.28C9.3 18.7867 9.88 17.5 10.52 16.42C11.1733 15.3267 11.8667 14.4867 12.6 13.9C13.3333 13.3 14.08 13 14.84 13C15.3067 13 15.6467 13.16 15.86 13.48C16.0733 13.7867 16.18 14.3067 16.18 15.04V15.94C16.18 17.2867 16.28 18.5267 16.48 19.66C16.68 20.7933 16.9267 21.7133 17.22 22.42C17.5133 23.1667 17.92 23.78 18.44 24.26C18.6 24.3933 18.7067 24.5133 18.76 24.62C18.8133 24.7133 18.84 24.8133 18.84 24.92C18.84 25.12 18.76 25.32 18.6 25.52C18.4533 25.72 18.26 25.8867 18.02 26.02C17.78 26.1533 17.5333 26.22 17.28 26.22ZM10.36 20.16C11.0133 20.1333 11.5867 20.1133 12.08 20.1C12.5733 20.0733 12.9867 20.06 13.32 20.06H14.72C14.6933 19.6867 14.6667 19.2933 14.64 18.88C14.6267 18.4667 14.62 18.0333 14.62 17.58V16.42C14.62 16.0333 14.5733 15.78 14.48 15.66C14.4 15.5267 14.24 15.46 14 15.46C13.3467 15.46 12.6933 15.8867 12.04 16.74C11.3867 17.5933 10.8267 18.7333 10.36 20.16Z" fill="#0097A7"/>
<path d="M18.88 18.22C18.4 18.22 18.1867 18.06 18.24 17.74C18.3867 17.1667 18.5067 16.5867 18.6 16C18.7067 15.4 18.76 14.8267 18.76 14.28C18.76 13.5733 18.7133 13.06 18.62 12.74C18.54 12.4067 18.4267 12.18 18.28 12.06C18.1333 11.9267 17.9533 11.8267 17.74 11.76C17.6467 11.72 17.56 11.6667 17.48 11.6C17.4133 11.5333 17.38 11.44 17.38 11.32C17.38 11.1333 17.4533 10.9267 17.6 10.7C17.7467 10.4733 17.9533 10.28 18.22 10.12C18.5 9.94667 18.8133 9.86 19.16 9.86C19.6133 9.86 19.9267 10.02 20.1 10.34C20.2733 10.6467 20.36 11.0533 20.36 11.56C20.36 11.8933 20.3267 12.2667 20.26 12.68C20.1933 13.0933 20.1267 13.4667 20.06 13.8L20.1 13.82C20.3133 13.1133 20.5733 12.46 20.88 11.86C21.2 11.26 21.58 10.7733 22.02 10.4C22.4733 10.0267 22.9933 9.84 23.58 9.84C24.18 9.84 24.6533 10.0467 25 10.46C25.3467 10.86 25.52 11.4533 25.52 12.24V12.68C25.9067 11.8667 26.3733 11.1867 26.92 10.64C27.48 10.0933 28.1533 9.82 28.94 9.82C29.58 9.82 30.08 10.0333 30.44 10.46C30.8 10.8867 30.98 11.42 30.98 12.06C30.98 12.3133 30.9533 12.56 30.9 12.8C30.8467 13.0267 30.7867 13.2533 30.72 13.48C30.6667 13.6933 30.6133 13.9133 30.56 14.14C30.5067 14.3667 30.48 14.5933 30.48 14.82C30.48 15.62 30.82 16.14 31.5 16.38C31.5933 16.42 31.6667 16.4667 31.72 16.52C31.7733 16.56 31.8 16.64 31.8 16.76C31.8 16.88 31.76 17.0533 31.68 17.28C31.6133 17.5067 31.4733 17.72 31.26 17.92C31.0467 18.1067 30.74 18.2 30.34 18.2C29.82 18.2 29.42 18.0133 29.14 17.64C28.86 17.2533 28.72 16.7667 28.72 16.18C28.72 15.8867 28.7467 15.58 28.8 15.26C28.8533 14.94 28.92 14.6333 29 14.34C29.0667 14.0733 29.12 13.82 29.16 13.58C29.2133 13.34 29.24 13.1333 29.24 12.96C29.24 12.64 29.16 12.4067 29 12.26C28.8533 12.1133 28.6533 12.04 28.4 12.04C27.9733 12.04 27.5867 12.1733 27.24 12.44C26.9067 12.7067 26.6067 13.0533 26.34 13.48C26.0867 13.9067 25.8667 14.3733 25.68 14.88C25.6933 15 25.7 15.16 25.7 15.36C25.7133 15.5467 25.72 15.7133 25.72 15.86C25.72 16.1133 25.7 16.38 25.66 16.66C25.6333 16.94 25.5733 17.1733 25.48 17.36C25.3733 17.6133 25.2133 17.82 25 17.98C24.8 18.14 24.5267 18.22 24.18 18.22C24.0333 18.22 23.8933 18.1867 23.76 18.12C23.6267 18.0667 23.56 17.9733 23.56 17.84C23.56 17.7867 23.6 17.5533 23.68 17.14C23.76 16.7133 23.84 16.1933 23.92 15.58C24 14.9667 24.04 14.3667 24.04 13.78C24.04 13.14 23.9733 12.7 23.84 12.46C23.7067 12.2067 23.5067 12.08 23.24 12.08C22.9067 12.08 22.5867 12.22 22.28 12.5C21.9867 12.78 21.7133 13.14 21.46 13.58C21.22 14.02 21.0067 14.48 20.82 14.96C20.6467 15.44 20.5067 15.8867 20.4 16.3V16.52C20.4 17.0133 20.26 17.42 19.98 17.74C19.7133 18.06 19.3467 18.22 18.88 18.22Z" fill="#0AE1F8"/>
<path d="M17.88 19.22C17.4 19.22 17.1867 19.06 17.24 18.74C17.3867 18.1667 17.5067 17.5867 17.6 17C17.7067 16.4 17.76 15.8267 17.76 15.28C17.76 14.5733 17.7133 14.06 17.62 13.74C17.54 13.4067 17.4267 13.18 17.28 13.06C17.1333 12.9267 16.9533 12.8267 16.74 12.76C16.6467 12.72 16.56 12.6667 16.48 12.6C16.4133 12.5333 16.38 12.44 16.38 12.32C16.38 12.1333 16.4533 11.9267 16.6 11.7C16.7467 11.4733 16.9533 11.28 17.22 11.12C17.5 10.9467 17.8133 10.86 18.16 10.86C18.6133 10.86 18.9267 11.02 19.1 11.34C19.2733 11.6467 19.36 12.0533 19.36 12.56C19.36 12.8933 19.3267 13.2667 19.26 13.68C19.1933 14.0933 19.1267 14.4667 19.06 14.8L19.1 14.82C19.3133 14.1133 19.5733 13.46 19.88 12.86C20.2 12.26 20.58 11.7733 21.02 11.4C21.4733 11.0267 21.9933 10.84 22.58 10.84C23.18 10.84 23.6533 11.0467 24 11.46C24.3467 11.86 24.52 12.4533 24.52 13.24V13.68C24.9067 12.8667 25.3733 12.1867 25.92 11.64C26.48 11.0933 27.1533 10.82 27.94 10.82C28.58 10.82 29.08 11.0333 29.44 11.46C29.8 11.8867 29.98 12.42 29.98 13.06C29.98 13.3133 29.9533 13.56 29.9 13.8C29.8467 14.0267 29.7867 14.2533 29.72 14.48C29.6667 14.6933 29.6133 14.9133 29.56 15.14C29.5067 15.3667 29.48 15.5933 29.48 15.82C29.48 16.62 29.82 17.14 30.5 17.38C30.5933 17.42 30.6667 17.4667 30.72 17.52C30.7733 17.56 30.8 17.64 30.8 17.76C30.8 17.88 30.76 18.0533 30.68 18.28C30.6133 18.5067 30.4733 18.72 30.26 18.92C30.0467 19.1067 29.74 19.2 29.34 19.2C28.82 19.2 28.42 19.0133 28.14 18.64C27.86 18.2533 27.72 17.7667 27.72 17.18C27.72 16.8867 27.7467 16.58 27.8 16.26C27.8533 15.94 27.92 15.6333 28 15.34C28.0667 15.0733 28.12 14.82 28.16 14.58C28.2133 14.34 28.24 14.1333 28.24 13.96C28.24 13.64 28.16 13.4067 28 13.26C27.8533 13.1133 27.6533 13.04 27.4 13.04C26.9733 13.04 26.5867 13.1733 26.24 13.44C25.9067 13.7067 25.6067 14.0533 25.34 14.48C25.0867 14.9067 24.8667 15.3733 24.68 15.88C24.6933 16 24.7 16.16 24.7 16.36C24.7133 16.5467 24.72 16.7133 24.72 16.86C24.72 17.1133 24.7 17.38 24.66 17.66C24.6333 17.94 24.5733 18.1733 24.48 18.36C24.3733 18.6133 24.2133 18.82 24 18.98C23.8 19.14 23.5267 19.22 23.18 19.22C23.0333 19.22 22.8933 19.1867 22.76 19.12C22.6267 19.0667 22.56 18.9733 22.56 18.84C22.56 18.7867 22.6 18.5533 22.68 18.14C22.76 17.7133 22.84 17.1933 22.92 16.58C23 15.9667 23.04 15.3667 23.04 14.78C23.04 14.14 22.9733 13.7 22.84 13.46C22.7067 13.2067 22.5067 13.08 22.24 13.08C21.9067 13.08 21.5867 13.22 21.28 13.5C20.9867 13.78 20.7133 14.14 20.46 14.58C20.22 15.02 20.0067 15.48 19.82 15.96C19.6467 16.44 19.5067 16.8867 19.4 17.3V17.52C19.4 18.0133 19.26 18.42 18.98 18.74C18.7133 19.06 18.3467 19.22 17.88 19.22Z" fill="#0097A7"/>
</svg>
