<svg width="36" height="34" viewBox="0 0 36 34" fill="none" xmlns="http://www.w3.org/2000/svg">
<path d="M17.5 31C25.5081 31 32 24.732 32 17C32 9.26801 25.5081 3 17.5 3C9.49187 3 3 9.26801 3 17C3 24.732 9.49187 31 17.5 31Z" stroke="#03C1D9" stroke-width="5"/>
<path d="M19.5 31C27.5081 31 34 24.732 34 17C34 9.26801 27.5081 3 19.5 3C11.4919 3 5 9.26801 5 17C5 24.732 11.4919 31 19.5 31Z" stroke="#0097A7" stroke-width="4"/>
<path d="M13.98 23.2C13.6867 23.2 13.4333 23.1267 13.22 22.98C13.02 22.82 12.92 22.4533 12.92 21.88C12.92 21.5867 12.9467 21.2333 13 20.82C13.0667 20.3933 13.1333 19.9533 13.2 19.5C13.3067 18.86 13.4133 18.16 13.52 17.4C13.6267 16.6267 13.68 15.86 13.68 15.1C13.68 14.3 13.6533 13.6867 13.6 13.26C13.5467 12.8333 13.4867 12.4867 13.42 12.22C13.3933 12.0733 13.3667 11.94 13.34 11.82C13.3267 11.7 13.32 11.5667 13.32 11.42C13.32 10.9933 13.4533 10.6733 13.72 10.46C14 10.2333 14.3067 10.12 14.64 10.12C14.9733 10.12 15.2533 10.2067 15.48 10.38C15.7067 10.54 15.9067 10.7133 16.08 10.9C17.2267 12.1933 18.26 13.5533 19.18 14.98C20.1 16.3933 20.8667 17.8467 21.48 19.34C21.5467 19.4467 21.6067 19.5 21.66 19.5C21.74 19.5 21.7933 19.4467 21.82 19.34C22.06 17.78 22.18 16.3667 22.18 15.1C22.18 14.34 22.1467 13.74 22.08 13.3C22.0267 12.8467 21.9533 12.5 21.86 12.26C21.78 12.0067 21.7 11.8067 21.62 11.66C21.58 11.5667 21.5467 11.4867 21.52 11.42C21.4933 11.34 21.48 11.2667 21.48 11.2C21.48 11.04 21.56 10.88 21.72 10.72C21.8933 10.5467 22.1 10.4067 22.34 10.3C22.58 10.1933 22.8133 10.14 23.04 10.14C23.36 10.14 23.5933 10.2467 23.74 10.46C23.8867 10.6733 23.98 10.94 24.02 11.26C24.0733 11.5667 24.1 11.88 24.1 12.2C24.1 12.56 24.0667 13.0267 24 13.6C23.9333 14.1733 23.8533 14.7933 23.76 15.46C23.68 16.1133 23.6067 16.76 23.54 17.4C23.4867 18.04 23.46 18.6067 23.46 19.1C23.46 19.38 23.4667 19.6533 23.48 19.92C23.5067 20.1867 23.5333 20.4467 23.56 20.7C23.6 21.0333 23.62 21.3267 23.62 21.58C23.62 22.0733 23.4933 22.4667 23.24 22.76C23 23.04 22.6667 23.18 22.24 23.18C21.9467 23.18 21.6533 23.0933 21.36 22.92C21.08 22.7467 20.8667 22.4667 20.72 22.08C20.1467 20.6133 19.44 19.1867 18.6 17.8C17.7733 16.4 16.9067 15.1933 16 14.18C15.8533 14.0467 15.7333 13.98 15.64 13.98C15.5067 13.98 15.42 14.1267 15.38 14.42C15.3133 14.9267 15.2467 15.48 15.18 16.08C15.1133 16.68 15.06 17.2667 15.02 17.84C14.98 18.4 14.96 18.88 14.96 19.28C14.96 19.7333 15 20.1267 15.08 20.46C15.16 20.78 15.28 21.0933 15.44 21.4C15.5867 21.6667 15.66 21.9067 15.66 22.12C15.66 22.3733 15.5133 22.62 15.22 22.86C14.9267 23.0867 14.5133 23.2 13.98 23.2Z" fill="#03C1D9"/>
<path d="M13.22 22.98L11.9706 24.5417L12.0272 24.587L12.0869 24.6281L13.22 22.98ZM13 20.82L11.024 20.5112L11.0199 20.5376L11.0164 20.5641L13 20.82ZM13.2 19.5L11.2272 19.1712L11.2241 19.1901L11.2213 19.209L13.2 19.5ZM13.52 17.4L15.5006 17.678L15.5012 17.6733L13.52 17.4ZM13.6 13.26L11.6154 13.5081L11.6154 13.5081L13.6 13.26ZM13.42 12.22L11.4523 12.5778L11.4639 12.6419L11.4797 12.7051L13.42 12.22ZM13.34 11.82L11.3522 12.0409L11.3642 12.1483L11.3876 12.2539L13.34 11.82ZM13.72 10.46L14.9694 12.0218L14.9784 12.0145L13.72 10.46ZM15.48 10.38L14.2651 11.9687L14.2954 11.9919L14.3266 12.0139L15.48 10.38ZM16.08 10.9L17.5765 9.57319L17.5612 9.55596L17.5456 9.5391L16.08 10.9ZM19.18 14.98L17.4992 16.0639L17.5038 16.0711L19.18 14.98ZM21.48 19.34L19.63 20.0998L19.6943 20.2564L19.784 20.4L21.48 19.34ZM21.82 19.34L23.7603 19.8251L23.7827 19.7354L23.7967 19.6441L21.82 19.34ZM22.08 13.3L20.0937 13.5337L20.0976 13.5667L20.1026 13.5996L22.08 13.3ZM21.86 12.26L19.9528 12.8623L19.9724 12.9243L19.996 12.9849L21.86 12.26ZM21.62 11.66L19.7817 12.4478L19.8189 12.5347L19.8642 12.6177L21.62 11.66ZM21.52 11.42L19.6226 12.0524L19.6412 12.1082L19.663 12.1628L21.52 11.42ZM21.72 10.72L23.1342 12.1342L23.1342 12.1342L21.72 10.72ZM22.34 10.3L21.5277 8.47237L21.5277 8.47238L22.34 10.3ZM23.74 10.46L22.0919 11.5931L22.0919 11.5931L23.74 10.46ZM24.02 11.26L22.0354 11.5081L22.0414 11.5555L22.0496 11.6027L24.02 11.26ZM24 13.6L22.0134 13.369L22.0134 13.369L24 13.6ZM23.76 15.46L21.7793 15.1827L21.7769 15.1998L21.7748 15.2169L23.76 15.46ZM23.54 17.4L21.5508 17.1928L21.5486 17.2133L21.5469 17.2339L23.54 17.4ZM23.48 19.92L21.4825 20.0199L21.485 20.0695L21.4899 20.119L23.48 19.92ZM23.56 20.7L21.571 20.9094L21.5725 20.9238L21.5742 20.9383L23.56 20.7ZM23.24 22.76L21.7263 21.4528L21.7215 21.4584L23.24 22.76ZM21.36 22.92L20.3073 24.6205L20.3248 24.6314L20.3425 24.6419L21.36 22.92ZM20.72 22.08L22.59 21.3707L22.5864 21.3612L22.5827 21.3518L20.72 22.08ZM18.6 17.8L16.8778 18.8169L16.8835 18.8266L16.8894 18.8362L18.6 17.8ZM16 14.18L17.4905 12.8464L17.4217 12.7695L17.3453 12.7001L16 14.18ZM15.38 14.42L13.3983 14.1498L13.3971 14.1591L15.38 14.42ZM15.18 16.08L17.1678 16.3009L17.1678 16.3009L15.18 16.08ZM15.02 17.84L17.0149 17.9825L17.0152 17.9792L15.02 17.84ZM15.08 20.46L13.1352 20.9267L13.1374 20.9359L13.1397 20.9451L15.08 20.46ZM15.44 21.4L13.6668 22.3251L13.677 22.3446L13.6876 22.3638L15.44 21.4ZM15.22 22.86L16.4429 24.4426L16.4649 24.4255L16.4865 24.4079L15.22 22.86ZM13.98 21.2C14.0007 21.2 14.0531 21.2027 14.1261 21.2239C14.2012 21.2456 14.2799 21.2817 14.3531 21.3319L12.0869 24.6281C12.6769 25.0336 13.3379 25.2 13.98 25.2V21.2ZM14.4694 21.4183C14.8252 21.7029 14.9144 22.0217 14.9245 22.0588C14.9386 22.1102 14.92 22.0693 14.92 21.88H10.92C10.92 22.264 10.9514 22.6931 11.0655 23.1112C11.1756 23.515 11.4148 24.0971 11.9706 24.5417L14.4694 21.4183ZM14.92 21.88C14.92 21.6995 14.937 21.4366 14.9836 21.0759L11.0164 20.5641C10.9563 21.0301 10.92 21.4738 10.92 21.88H14.92ZM14.976 21.1288C15.0437 20.6958 15.1112 20.2499 15.1787 19.791L11.2213 19.209C11.1554 19.6568 11.0897 20.0908 11.024 20.5112L14.976 21.1288ZM15.1728 19.8288C15.2827 19.1692 15.392 18.452 15.5006 17.678L11.5394 17.122C11.4347 17.868 11.3306 18.5508 11.2272 19.1712L15.1728 19.8288ZM15.5012 17.6733C15.6201 16.8118 15.68 15.9539 15.68 15.1H11.68C11.68 15.7661 11.6333 16.4415 11.5388 17.1267L15.5012 17.6733ZM15.68 15.1C15.68 14.2746 15.6534 13.5631 15.5846 13.0119L11.6154 13.5081C11.6532 13.8103 11.68 14.3254 11.68 15.1H15.68ZM15.5846 13.0119C15.5261 12.5445 15.4541 12.1103 15.3603 11.7349L11.4797 12.7051C11.5192 12.8631 11.5672 13.1221 11.6154 13.5081L15.5846 13.0119ZM15.3877 11.8622C15.3574 11.6952 15.3257 11.536 15.2924 11.3861L11.3876 12.2539C11.4077 12.344 11.4293 12.4514 11.4523 12.5778L15.3877 11.8622ZM15.3278 11.5991C15.3241 11.566 15.32 11.5079 15.32 11.42H11.32C11.32 11.6254 11.3292 11.834 11.3522 12.0409L15.3278 11.5991ZM15.32 11.42C15.32 11.4116 15.3216 11.4963 15.2662 11.6292C15.2057 11.7744 15.1025 11.9153 14.9694 12.0217L12.4706 8.89826C11.6134 9.58404 11.32 10.5519 11.32 11.42H15.32ZM14.9784 12.0145C14.966 12.0245 14.9244 12.0547 14.8533 12.081C14.7803 12.108 14.7052 12.12 14.64 12.12V8.12C13.8105 8.12 13.0669 8.41553 12.4616 8.90551L14.9784 12.0145ZM14.64 12.12C14.6332 12.12 14.5844 12.119 14.5086 12.0956C14.4297 12.0711 14.3441 12.0291 14.2651 11.9687L16.6949 8.79128C16.063 8.30805 15.3357 8.12 14.64 8.12V12.12ZM14.3266 12.0139C14.45 12.101 14.5434 12.1844 14.6144 12.2609L17.5456 9.5391C17.27 9.24229 16.9633 8.97898 16.6334 8.74606L14.3266 12.0139ZM14.5835 12.2268C15.6638 13.4454 16.6353 14.7243 17.4992 16.0639L20.8608 13.8961C19.8847 12.3824 18.7895 10.9413 17.5765 9.57319L14.5835 12.2268ZM17.5038 16.0711C18.3587 17.3843 19.0662 18.7271 19.63 20.0998L23.33 18.5802C22.6672 16.9662 21.8413 15.4023 20.8562 13.8889L17.5038 16.0711ZM19.784 20.4C19.8681 20.5345 20.0169 20.7509 20.2463 20.9548C20.463 21.1474 20.9474 21.5 21.66 21.5V17.5C22.3193 17.5 22.747 17.8259 22.9037 17.9652C23.0731 18.1157 23.1586 18.2521 23.176 18.28L19.784 20.4ZM21.66 21.5C22.1947 21.5 22.748 21.3005 23.1742 20.8742C23.5486 20.4998 23.6968 20.0789 23.7603 19.8251L19.8797 18.8549C19.9165 18.7078 20.0247 18.3669 20.3458 18.0458C20.7187 17.6729 21.2053 17.5 21.66 17.5V21.5ZM23.7967 19.6441C24.0486 18.0068 24.18 16.4897 24.18 15.1H20.18C20.18 16.2437 20.0714 17.5532 19.8433 19.0359L23.7967 19.6441ZM24.18 15.1C24.18 14.2992 24.146 13.5848 24.0574 13.0004L20.1026 13.5996C20.1474 13.8952 20.18 14.3808 20.18 15.1H24.18ZM24.0663 13.0663C24.0059 12.5528 23.9085 12.0096 23.724 11.5351L19.996 12.9849C19.9919 12.9743 20.0064 13.0102 20.0283 13.1139C20.0494 13.2136 20.0722 13.3513 20.0937 13.5337L24.0663 13.0663ZM23.7672 11.6577C23.6682 11.3442 23.5427 11.0083 23.3758 10.7023L19.8642 12.6177C19.8572 12.6049 19.8645 12.6165 19.883 12.6628C19.9009 12.7074 19.9245 12.7726 19.9528 12.8623L23.7672 11.6577ZM23.4583 10.8722C23.4223 10.7882 23.3957 10.7241 23.377 10.6772L19.663 12.1628C19.6976 12.2493 19.7377 12.3451 19.7817 12.4478L23.4583 10.8722ZM23.4174 10.7875C23.4415 10.86 23.48 11.0034 23.48 11.2H19.48C19.48 11.5299 19.5451 11.82 19.6226 12.0524L23.4174 10.7875ZM23.48 11.2C23.48 11.7575 23.1922 12.0762 23.1342 12.1342L20.3058 9.30578C19.9278 9.68378 19.48 10.3225 19.48 11.2H23.48ZM23.1342 12.1342C23.1321 12.1363 23.1302 12.138 23.1286 12.1393C23.127 12.1406 23.1263 12.1411 23.1267 12.1408C23.1272 12.1405 23.1347 12.1354 23.1523 12.1276L21.5277 8.47238C21.0795 8.67157 20.6648 8.94681 20.3058 9.30579L23.1342 12.1342ZM23.1523 12.1276C23.1656 12.1217 23.1613 12.125 23.1406 12.1297C23.1193 12.1346 23.0848 12.14 23.04 12.14V8.14C22.4925 8.14 21.9832 8.26996 21.5277 8.47237L23.1523 12.1276ZM23.04 12.14C22.982 12.14 22.824 12.1306 22.6235 12.0389C22.4078 11.9403 22.2217 11.7819 22.0919 11.5931L25.3881 9.32694C24.7786 8.44049 23.8427 8.14 23.04 8.14V12.14ZM22.0919 11.5931C22.018 11.4856 22.0256 11.4292 22.0354 11.5081L26.0046 11.0119C25.9344 10.4508 25.7553 9.86105 25.3881 9.32694L22.0919 11.5931ZM22.0496 11.6027C22.0827 11.7931 22.1 11.9916 22.1 12.2H26.1C26.1 11.7684 26.064 11.3403 25.9904 10.9173L22.0496 11.6027ZM22.1 12.2C22.1 12.4511 22.0758 12.8326 22.0134 13.369L25.9866 13.831C26.0576 13.2207 26.1 12.6689 26.1 12.2H22.1ZM22.0134 13.369C21.9488 13.9246 21.8708 14.529 21.7793 15.1827L25.7407 15.7373C25.8358 15.0577 25.9179 14.4221 25.9866 13.831L22.0134 13.369ZM21.7748 15.2169C21.6934 15.8819 21.6187 16.5405 21.5508 17.1928L25.5292 17.6072C25.5946 16.9795 25.6666 16.3447 25.7452 15.7031L21.7748 15.2169ZM21.5469 17.2339C21.4903 17.9137 21.46 18.5376 21.46 19.1H25.46C25.46 18.6757 25.4831 18.1663 25.5331 17.5661L21.5469 17.2339ZM21.46 19.1C21.46 19.4117 21.4674 19.7184 21.4825 20.0199L25.4775 19.8201C25.4659 19.5883 25.46 19.3483 25.46 19.1H21.46ZM21.4899 20.119C21.5169 20.389 21.5439 20.6524 21.571 20.9094L25.549 20.4906C25.5227 20.2409 25.4964 19.9844 25.4701 19.721L21.4899 20.119ZM21.5742 20.9383C21.6076 21.2163 21.62 21.4271 21.62 21.58H25.62C25.62 21.2262 25.5924 20.8504 25.5458 20.4617L21.5742 20.9383ZM21.62 21.58C21.62 21.6577 21.6098 21.6674 21.6213 21.6319C21.6272 21.6136 21.638 21.586 21.6563 21.5529C21.6749 21.5194 21.6983 21.4852 21.7264 21.4528L24.7536 24.0672C25.3987 23.3203 25.62 22.4188 25.62 21.58H21.62ZM21.7215 21.4584C21.7997 21.3671 21.9095 21.284 22.0355 21.231C22.1541 21.1812 22.2345 21.18 22.24 21.18V25.18C23.1488 25.18 24.077 24.8567 24.7585 24.0616L21.7215 21.4584ZM22.24 21.18C22.2933 21.18 22.3373 21.1883 22.3667 21.197C22.3945 21.2052 22.3984 21.2105 22.3775 21.1981L20.3425 24.6419C20.8936 24.9675 21.5344 25.18 22.24 25.18V21.18ZM22.4127 21.2195C22.4944 21.27 22.5498 21.3271 22.5809 21.3679C22.6093 21.4052 22.6066 21.4145 22.59 21.3707L18.85 22.7893C19.1121 23.4804 19.5665 24.1619 20.3073 24.6205L22.4127 21.2195ZM22.5827 21.3518C21.9664 19.7752 21.2083 18.2457 20.3106 16.7638L16.8894 18.8362C17.6717 20.1277 18.3269 21.4515 18.8573 22.8082L22.5827 21.3518ZM20.3222 16.7831C19.4414 15.2914 18.4996 13.9742 17.4905 12.8464L14.5095 15.5136C15.3138 16.4124 16.1053 17.5086 16.8778 18.8169L20.3222 16.7831ZM17.3453 12.7001C17.2037 12.5713 17.0108 12.4147 16.7713 12.2817C16.5442 12.1555 16.1495 11.98 15.64 11.98V15.98C15.2239 15.98 14.9358 15.8378 14.8287 15.7783C14.7645 15.7426 14.7196 15.711 14.695 15.6925C14.6697 15.6735 14.6561 15.6612 14.6547 15.6599L17.3453 12.7001ZM15.64 11.98C14.6659 11.98 14.0413 12.5849 13.7531 13.0725C13.5093 13.4852 13.4317 13.9053 13.3983 14.1498L17.3617 14.6902C17.3617 14.6903 17.3614 14.6921 17.3608 14.6955C17.3603 14.6989 17.3593 14.7044 17.3579 14.7116C17.3551 14.7254 17.3498 14.7492 17.3407 14.7808C17.3246 14.8365 17.2849 14.9584 17.1969 15.1075C17.1082 15.2576 16.9422 15.4822 16.6582 15.6716C16.3541 15.8743 15.9979 15.98 15.64 15.98V11.98ZM13.3971 14.1591C13.3284 14.6812 13.2601 15.2481 13.1922 15.8591L17.1678 16.3009C17.2332 15.7119 17.2983 15.1721 17.3629 14.6809L13.3971 14.1591ZM13.1922 15.8591C13.1227 16.485 13.0668 17.0989 13.0248 17.7008L17.0152 17.9792C17.0532 17.4345 17.104 16.875 17.1678 16.3009L13.1922 15.8591ZM13.0251 17.6975C12.9829 18.2877 12.96 18.8178 12.96 19.28H16.96C16.96 18.9422 16.9771 18.5123 17.0149 17.9825L13.0251 17.6975ZM12.96 19.28C12.96 19.8434 13.009 20.4006 13.1352 20.9267L17.0248 19.9933C16.991 19.8527 16.96 19.6233 16.96 19.28H12.96ZM13.1397 20.9451C13.2597 21.4251 13.4375 21.8856 13.6668 22.3251L17.2132 20.4749C17.1225 20.301 17.0603 20.1349 17.0203 19.9749L13.1397 20.9451ZM13.6876 22.3638C13.708 22.4011 13.7033 22.4004 13.6923 22.3644C13.681 22.3275 13.66 22.2427 13.66 22.12H17.66C17.66 21.4564 17.4364 20.8797 17.1924 20.4362L13.6876 22.3638ZM13.66 22.12C13.66 21.841 13.7453 21.6168 13.8309 21.4728C13.908 21.3432 13.9744 21.295 13.9535 21.3121L16.4865 24.4079C17.0087 23.9806 17.66 23.2225 17.66 22.12H13.66ZM13.9971 21.2774C14.0405 21.2439 14.08 21.2211 14.1104 21.2065C14.1403 21.1921 14.1588 21.1868 14.1611 21.1862C14.1632 21.1856 14.1505 21.1892 14.1198 21.1929C14.0889 21.1966 14.0431 21.2 13.98 21.2V25.2C14.7677 25.2 15.675 25.036 16.4429 24.4426L13.9971 21.2774Z" fill="#03C1D9"/>
<path d="M14.98 24.2C14.6867 24.2 14.4333 24.1267 14.22 23.98C14.02 23.82 13.92 23.4533 13.92 22.88C13.92 22.5867 13.9467 22.2333 14 21.82C14.0667 21.3933 14.1333 20.9533 14.2 20.5C14.3067 19.86 14.4133 19.16 14.52 18.4C14.6267 17.6267 14.68 16.86 14.68 16.1C14.68 15.3 14.6533 14.6867 14.6 14.26C14.5467 13.8333 14.4867 13.4867 14.42 13.22C14.3933 13.0733 14.3667 12.94 14.34 12.82C14.3267 12.7 14.32 12.5667 14.32 12.42C14.32 11.9933 14.4533 11.6733 14.72 11.46C15 11.2333 15.3067 11.12 15.64 11.12C15.9733 11.12 16.2533 11.2067 16.48 11.38C16.7067 11.54 16.9067 11.7133 17.08 11.9C18.2267 13.1933 19.26 14.5533 20.18 15.98C21.1 17.3933 21.8667 18.8467 22.48 20.34C22.5467 20.4467 22.6067 20.5 22.66 20.5C22.74 20.5 22.7933 20.4467 22.82 20.34C23.06 18.78 23.18 17.3667 23.18 16.1C23.18 15.34 23.1467 14.74 23.08 14.3C23.0267 13.8467 22.9533 13.5 22.86 13.26C22.78 13.0067 22.7 12.8067 22.62 12.66C22.58 12.5667 22.5467 12.4867 22.52 12.42C22.4933 12.34 22.48 12.2667 22.48 12.2C22.48 12.04 22.56 11.88 22.72 11.72C22.8933 11.5467 23.1 11.4067 23.34 11.3C23.58 11.1933 23.8133 11.14 24.04 11.14C24.36 11.14 24.5933 11.2467 24.74 11.46C24.8867 11.6733 24.98 11.94 25.02 12.26C25.0733 12.5667 25.1 12.88 25.1 13.2C25.1 13.56 25.0667 14.0267 25 14.6C24.9333 15.1733 24.8533 15.7933 24.76 16.46C24.68 17.1133 24.6067 17.76 24.54 18.4C24.4867 19.04 24.46 19.6067 24.46 20.1C24.46 20.38 24.4667 20.6533 24.48 20.92C24.5067 21.1867 24.5333 21.4467 24.56 21.7C24.6 22.0333 24.62 22.3267 24.62 22.58C24.62 23.0733 24.4933 23.4667 24.24 23.76C24 24.04 23.6667 24.18 23.24 24.18C22.9467 24.18 22.6533 24.0933 22.36 23.92C22.08 23.7467 21.8667 23.4667 21.72 23.08C21.1467 21.6133 20.44 20.1867 19.6 18.8C18.7733 17.4 17.9067 16.1933 17 15.18C16.8533 15.0467 16.7333 14.98 16.64 14.98C16.5067 14.98 16.42 15.1267 16.38 15.42C16.3133 15.9267 16.2467 16.48 16.18 17.08C16.1133 17.68 16.06 18.2667 16.02 18.84C15.98 19.4 15.96 19.88 15.96 20.28C15.96 20.7333 16 21.1267 16.08 21.46C16.16 21.78 16.28 22.0933 16.44 22.4C16.5867 22.6667 16.66 22.9067 16.66 23.12C16.66 23.3733 16.5133 23.62 16.22 23.86C15.9267 24.0867 15.5133 24.2 14.98 24.2Z" fill="#0097A7"/>
<path d="M14.22 23.98L13.5953 24.7609L13.6236 24.7835L13.6535 24.804L14.22 23.98ZM14 21.82L13.012 21.6656L13.0099 21.6788L13.0082 21.692L14 21.82ZM14.2 20.5L13.2136 20.3356L13.212 20.345L13.2106 20.3545L14.2 20.5ZM14.52 18.4L15.5103 18.539L15.5106 18.5366L14.52 18.4ZM14.6 14.26L13.6077 14.384L13.6077 14.384L14.6 14.26ZM14.42 13.22L13.4361 13.3989L13.442 13.4309L13.4499 13.4625L14.42 13.22ZM14.34 12.82L13.3461 12.9304L13.3521 12.9842L13.3638 13.0369L14.34 12.82ZM14.72 11.46L15.3447 12.2409L15.3492 12.2372L14.72 11.46ZM16.48 11.38L15.8725 12.1744L15.8877 12.186L15.9033 12.197L16.48 11.38ZM17.08 11.9L17.8283 11.2366L17.8206 11.228L17.8128 11.2195L17.08 11.9ZM20.18 15.98L19.3396 16.522L19.3419 16.5255L20.18 15.98ZM22.48 20.34L21.555 20.7199L21.5871 20.7982L21.632 20.87L22.48 20.34ZM22.82 20.34L23.7901 20.5825L23.8013 20.5377L23.8084 20.4921L22.82 20.34ZM23.08 14.3L22.0868 14.4168L22.0888 14.4334L22.0913 14.4498L23.08 14.3ZM22.86 13.26L21.9064 13.5611L21.9162 13.5921L21.928 13.6224L22.86 13.26ZM22.62 12.66L21.7009 13.0539L21.7195 13.0974L21.7421 13.1389L22.62 12.66ZM22.52 12.42L21.5713 12.7362L21.5806 12.7641L21.5915 12.7914L22.52 12.42ZM22.72 11.72L23.4271 12.4271L23.4271 12.4271L22.72 11.72ZM23.34 11.3L22.9339 10.3862L22.9339 10.3862L23.34 11.3ZM24.74 11.46L23.916 12.0265L23.916 12.0265L24.74 11.46ZM25.02 12.26L24.0277 12.384L24.0307 12.4078L24.0348 12.4313L25.02 12.26ZM25 14.6L24.0067 14.4845L24.0067 14.4845L25 14.6ZM24.76 16.46L23.7697 16.3214L23.7685 16.3299L23.7674 16.3385L24.76 16.46ZM24.54 18.4L23.5454 18.2964L23.5443 18.3067L23.5435 18.317L24.54 18.4ZM24.48 20.92L23.4812 20.9699L23.4825 20.9948L23.485 21.0195L24.48 20.92ZM24.56 21.7L23.5655 21.8047L23.5663 21.8119L23.5671 21.8191L24.56 21.7ZM24.24 23.76L23.4832 23.1064L23.4807 23.1092L24.24 23.76ZM22.36 23.92L21.8336 24.7703L21.8424 24.7757L21.8513 24.7809L22.36 23.92ZM21.72 23.08L22.655 22.7253L22.6514 22.7159L21.72 23.08ZM19.6 18.8L18.7389 19.3085L18.7447 19.3181L19.6 18.8ZM17 15.18L17.7452 14.5132L17.7108 14.4748L17.6727 14.4401L17 15.18ZM16.38 15.42L15.3892 15.2849L15.3885 15.2895L16.38 15.42ZM16.18 17.08L17.1739 17.1904L17.1739 17.1904L16.18 17.08ZM16.02 18.84L17.0175 18.9112L17.0176 18.9096L16.02 18.84ZM16.08 21.46L15.1076 21.6934L15.1099 21.7025L16.08 21.46ZM16.44 22.4L15.5534 22.8626L15.5585 22.8723L15.5638 22.8819L16.44 22.4ZM16.22 23.86L16.8314 24.6513L16.8425 24.6428L16.8532 24.634L16.22 23.86ZM14.98 23.2C14.8611 23.2 14.8116 23.1732 14.7865 23.156L13.6535 24.804C14.0551 25.0802 14.5123 25.2 14.98 25.2V23.2ZM14.8447 23.1991C14.9726 23.3014 14.9797 23.395 14.9598 23.3219C14.9418 23.256 14.92 23.118 14.92 22.88H12.92C12.92 23.2153 12.9482 23.5474 13.0302 23.8481C13.1103 24.1417 13.2674 24.4986 13.5953 24.7609L14.8447 23.1991ZM14.92 22.88C14.92 22.6431 14.9418 22.335 14.9918 21.948L13.0082 21.692C12.9515 22.1317 12.92 22.5303 12.92 22.88H14.92ZM14.988 21.9744C15.0552 21.5446 15.1223 21.1016 15.1894 20.6455L13.2106 20.3545C13.1444 20.8051 13.0782 21.2421 13.012 21.6656L14.988 21.9744ZM15.1864 20.6644C15.2947 20.0146 15.4026 19.306 15.5103 18.539L13.5297 18.261C13.424 19.014 13.3186 19.7054 13.2136 20.3356L15.1864 20.6644ZM15.5106 18.5366C15.6234 17.7193 15.68 16.9069 15.68 16.1H13.68C13.68 16.8131 13.63 17.5341 13.5294 18.2634L15.5106 18.5366ZM15.68 16.1C15.68 15.2873 15.6534 14.6249 15.5923 14.136L13.6077 14.384C13.6533 14.7485 13.68 15.3127 13.68 16.1H15.68ZM15.5923 14.136C15.5364 13.6889 15.4704 13.2985 15.3901 12.9775L13.4499 13.4625C13.5029 13.6749 13.5569 13.9777 13.6077 14.384L15.5923 14.136ZM15.4039 13.0411C15.3754 12.8843 15.3462 12.738 15.3162 12.6031L13.3638 13.0369C13.3872 13.142 13.4113 13.2624 13.4361 13.3989L15.4039 13.0411ZM15.3339 12.7096C15.3254 12.633 15.32 12.5373 15.32 12.42H13.32C13.32 12.596 13.328 12.767 13.3461 12.9304L15.3339 12.7096ZM15.32 12.42C15.32 12.3091 15.3374 12.2581 15.3431 12.2446C15.3458 12.2382 15.3468 12.2376 15.345 12.24C15.3432 12.2424 15.3422 12.2428 15.3447 12.2409L14.0953 10.6791C13.5334 11.1287 13.32 11.7726 13.32 12.42H15.32ZM15.3492 12.2372C15.4666 12.1422 15.5548 12.12 15.64 12.12V10.12C15.0586 10.12 14.5334 10.3244 14.0908 10.6828L15.3492 12.2372ZM15.64 12.12C15.7921 12.12 15.8485 12.156 15.8725 12.1744L17.0875 10.5856C16.6582 10.2574 16.1545 10.12 15.64 10.12V12.12ZM15.9033 12.197C16.0783 12.3205 16.225 12.4489 16.3472 12.5805L17.8128 11.2195C17.5883 10.9778 17.335 10.7595 17.0567 10.563L15.9033 12.197ZM16.3317 12.5634C17.4453 13.8193 18.4477 15.1388 19.3396 16.5219L21.0204 15.4381C20.0723 13.9678 19.0081 12.5673 17.8283 11.2366L16.3317 12.5634ZM19.3419 16.5255C20.2293 17.8888 20.9664 19.2869 21.555 20.7199L23.405 19.9601C22.7669 18.4064 21.9707 16.8978 21.0181 15.4345L19.3419 16.5255ZM21.632 20.87C21.6907 20.9639 21.781 21.0921 21.9106 21.2074C22.034 21.317 22.2903 21.5 22.66 21.5V19.5C22.9763 19.5 23.176 19.6563 23.2394 19.7126C23.309 19.7745 23.336 19.8227 23.328 19.81L21.632 20.87ZM22.66 21.5C22.9474 21.5 23.2406 21.3936 23.4671 21.1671C23.6676 20.9666 23.7517 20.7361 23.7901 20.5825L21.8499 20.0975C21.8616 20.0505 21.9057 19.9001 22.0529 19.7529C22.226 19.5798 22.4526 19.5 22.66 19.5V21.5ZM23.8084 20.4921C24.0543 18.8934 24.18 17.4282 24.18 16.1H22.18C22.18 17.3052 22.0657 18.6666 21.8316 20.1879L23.8084 20.4921ZM24.18 16.1C24.18 15.3196 24.1463 14.6624 24.0687 14.1502L22.0913 14.4498C22.147 14.8176 22.18 15.3604 22.18 16.1H24.18ZM24.0732 14.1832C24.0163 13.6997 23.9309 13.2548 23.792 12.8976L21.928 13.6224C21.9757 13.7452 22.0371 13.9936 22.0868 14.4168L24.0732 14.1832ZM23.8136 12.9589C23.7241 12.6754 23.6214 12.4075 23.4979 12.1811L21.7421 13.1389C21.7786 13.2058 21.8359 13.3379 21.9064 13.5611L23.8136 12.9589ZM23.5391 12.2661C23.5012 12.1774 23.4712 12.1054 23.4485 12.0486L21.5915 12.7914C21.6222 12.868 21.6588 12.9559 21.7009 13.0539L23.5391 12.2661ZM23.4687 12.1038C23.4674 12.1 23.48 12.1351 23.48 12.2H21.48C21.48 12.3983 21.5192 12.58 21.5713 12.7362L23.4687 12.1038ZM23.48 12.2C23.48 12.2928 23.4556 12.3649 23.4344 12.4072C23.4156 12.4449 23.4039 12.4503 23.4271 12.4271L22.0129 11.0129C21.7439 11.2819 21.48 11.6812 21.48 12.2H23.48ZM23.4271 12.4271C23.5076 12.3466 23.6102 12.2742 23.7461 12.2138L22.9339 10.3862C22.5898 10.5391 22.279 10.7467 22.0129 11.0129L23.4271 12.4271ZM23.7461 12.2138C23.8784 12.155 23.9737 12.14 24.04 12.14V10.14C23.6529 10.14 23.2816 10.2316 22.9339 10.3862L23.7461 12.2138ZM24.04 12.14C24.091 12.14 24.0812 12.1486 24.0392 12.1295C24.018 12.1198 23.9936 12.1051 23.9696 12.0849C23.9457 12.0648 23.9279 12.044 23.916 12.0265L25.564 10.8935C25.186 10.3436 24.6014 10.14 24.04 10.14V12.14ZM23.916 12.0265C23.9524 12.0795 24.0028 12.1846 24.0277 12.384L26.0123 12.136C25.9572 11.6954 25.821 11.2672 25.564 10.8935L23.916 12.0265ZM24.0348 12.4313C24.078 12.6799 24.1 12.9358 24.1 13.2H26.1C26.1 12.8242 26.0687 12.4535 26.0052 12.0887L24.0348 12.4313ZM24.1 13.2C24.1 13.5055 24.0712 13.9296 24.0067 14.4845L25.9933 14.7155C26.0621 14.1237 26.1 13.6145 26.1 13.2H24.1ZM24.0067 14.4845C23.9411 15.049 23.8621 15.6612 23.7697 16.3214L25.7503 16.5986C25.8446 15.9255 25.9256 15.2977 25.9933 14.7155L24.0067 14.4845ZM23.7674 16.3385C23.6867 16.9976 23.6127 17.6503 23.5454 18.2964L25.5346 18.5036C25.6006 17.8697 25.6733 17.229 25.7526 16.5815L23.7674 16.3385ZM23.5435 18.317C23.4885 18.9768 23.46 19.5721 23.46 20.1H25.46C25.46 19.6412 25.4849 19.1032 25.5365 18.483L23.5435 18.317ZM23.46 20.1C23.46 20.3959 23.467 20.6859 23.4812 20.9699L25.4788 20.8701C25.4663 20.6208 25.46 20.3641 25.46 20.1H23.46ZM23.485 21.0195C23.5118 21.2878 23.5386 21.5495 23.5655 21.8047L25.5545 21.5953C25.528 21.3438 25.5015 21.0855 25.475 20.8205L23.485 21.0195ZM23.5671 21.8191C23.6038 22.1248 23.62 22.3769 23.62 22.58H25.62C25.62 22.2765 25.5962 21.9419 25.5529 21.5809L23.5671 21.8191ZM23.62 22.58C23.62 22.9006 23.5406 23.0398 23.4832 23.1064L24.9968 24.4136C25.446 23.8935 25.62 23.246 25.62 22.58H23.62ZM23.4807 23.1092C23.4615 23.1316 23.4256 23.18 23.24 23.18V25.18C23.9077 25.18 24.5385 24.9484 24.9993 24.4108L23.4807 23.1092ZM23.24 23.18C23.1528 23.18 23.0332 23.1563 22.8687 23.0591L21.8513 24.7809C22.2735 25.0304 22.7405 25.18 23.24 25.18V23.18ZM22.8864 23.0697C22.8368 23.039 22.7439 22.9598 22.655 22.7253L20.785 23.4347C20.9894 23.9735 21.3232 24.4543 21.8336 24.7703L22.8864 23.0697ZM22.6514 22.7159C22.0565 21.1943 21.3242 19.7162 20.4553 18.2819L18.7447 19.3181C19.5558 20.6572 20.2368 22.0324 20.7886 23.4441L22.6514 22.7159ZM20.4611 18.2915C19.6073 16.8457 18.7031 15.5838 17.7452 14.5132L16.2548 15.8468C17.1102 16.8029 17.9393 17.9543 18.7389 19.3085L20.4611 18.2915ZM17.6727 14.4401C17.5652 14.3423 17.4354 14.239 17.2856 14.1558C17.1421 14.0761 16.9181 13.98 16.64 13.98V15.98C16.4553 15.98 16.3379 15.9172 16.3144 15.9042C16.2846 15.8876 16.2882 15.8843 16.3273 15.9199L17.6727 14.4401ZM16.64 13.98C16.1196 13.98 15.7798 14.3008 15.6141 14.5813C15.4705 14.8243 15.4158 15.0893 15.3892 15.2849L17.3708 15.5551C17.3842 15.4574 17.3928 15.5024 17.3359 15.5987C17.3024 15.6554 17.2317 15.754 17.1035 15.8395C16.9652 15.9317 16.8023 15.98 16.64 15.98V13.98ZM15.3885 15.2895C15.3209 15.8039 15.2534 16.364 15.1861 16.9696L17.1739 17.1904C17.2399 16.596 17.3058 16.0494 17.3715 15.5505L15.3885 15.2895ZM15.1861 16.9696C15.118 17.5825 15.0634 18.1828 15.0224 18.7704L17.0176 18.9096C17.0566 18.3506 17.1087 17.7775 17.1739 17.1904L15.1861 16.9696ZM15.0225 18.7688C14.9815 19.3438 14.96 19.8489 14.96 20.28H16.96C16.96 19.9111 16.9785 19.4562 17.0175 18.9112L15.0225 18.7688ZM14.96 20.28C14.96 20.7884 15.0045 21.2636 15.1076 21.6934L17.0524 21.2266C16.9955 20.9897 16.96 20.6783 16.96 20.28H14.96ZM15.1099 21.7025C15.2099 22.1025 15.3588 22.4895 15.5534 22.8626L17.3266 21.9374C17.2012 21.6972 17.1101 21.4575 17.0501 21.2175L15.1099 21.7025ZM15.5638 22.8819C15.6618 23.0601 15.66 23.1318 15.66 23.12H17.66C17.66 22.6815 17.5115 22.2732 17.3162 21.9181L15.5638 22.8819ZM15.66 23.12C15.66 23.0854 15.6652 23.0536 15.6729 23.0273C15.6804 23.0017 15.6886 22.9871 15.6905 22.9839C15.6921 22.9812 15.6875 22.9896 15.6707 23.0081C15.6539 23.0267 15.6272 23.053 15.5868 23.086L16.8532 24.634C17.261 24.3003 17.66 23.7979 17.66 23.12H15.66ZM15.6086 23.0687C15.5525 23.112 15.3861 23.2 14.98 23.2V25.2C15.6405 25.2 16.3008 25.0613 16.8314 24.6513L15.6086 23.0687Z" fill="#0097A7"/>
</svg>
