<svg width="46" height="43" viewBox="0 0 46 43" fill="none" xmlns="http://www.w3.org/2000/svg">
<path d="M22 40.6207C33.0457 40.6207 42 31.9752 42 21.3103C42 10.6455 33.0457 2 22 2C10.9543 2 2 10.6455 2 21.3103C2 31.9752 10.9543 40.6207 22 40.6207Z" stroke="#BDC1C1" stroke-width="3"/>
<path d="M24 40.6207C35.0457 40.6207 44 31.9752 44 21.3103C44 10.6455 35.0457 2 24 2C12.9543 2 4 10.6455 4 21.3103C4 31.9752 12.9543 40.6207 24 40.6207Z" stroke="#0097A7" stroke-width="3"/>
<path d="M19.28 30.22C18.8667 30.22 18.5133 30.0467 18.22 29.7C17.94 29.34 17.6667 28.7533 17.4 27.94C17.2667 27.54 17.1533 27.1533 17.06 26.78C16.98 26.3933 16.92 26.02 16.88 25.66C16.7067 25.9267 16.5467 26.1067 16.4 26.2C16.2667 26.28 16.0667 26.32 15.8 26.32C15.1467 26.32 14.4533 26.3133 13.72 26.3C12.9867 26.2733 12.3333 26.2533 11.76 26.24C11.7333 26.48 11.7067 26.7267 11.68 26.98C11.6667 27.22 11.66 27.46 11.66 27.7C11.66 27.9133 11.6667 28.1267 11.68 28.34C11.7067 28.5533 11.7267 28.76 11.74 28.96C11.78 29.3333 11.6333 29.6333 11.3 29.86C10.9667 30.0867 10.5533 30.2 10.06 30.2C9.63333 30.2 9.42 30.0133 9.42 29.64C9.42 29.4133 9.48 29.0733 9.6 28.62C9.66667 28.3133 9.72 28.0533 9.76 27.84C9.8 27.6133 9.82 27.4333 9.82 27.3C9.82 26.9267 9.70667 26.6733 9.48 26.54C9.29333 26.4333 9.2 26.2933 9.2 26.12C9.2 25.96 9.23333 25.7667 9.3 25.54C9.38 25.3133 9.48 25.1067 9.6 24.92C9.72 24.72 9.83333 24.58 9.94 24.5C10.0333 24.4467 10.1467 24.4 10.28 24.36C10.4133 24.32 10.58 24.2933 10.78 24.28C11.3 22.7867 11.88 21.5 12.52 20.42C13.1733 19.3267 13.8667 18.4867 14.6 17.9C15.3333 17.3 16.08 17 16.84 17C17.3067 17 17.6467 17.16 17.86 17.48C18.0733 17.7867 18.18 18.3067 18.18 19.04V19.94C18.18 21.2867 18.28 22.5267 18.48 23.66C18.68 24.7933 18.9267 25.7133 19.22 26.42C19.5133 27.1667 19.92 27.78 20.44 28.26C20.6 28.3933 20.7067 28.5133 20.76 28.62C20.8133 28.7133 20.84 28.8133 20.84 28.92C20.84 29.12 20.76 29.32 20.6 29.52C20.4533 29.72 20.26 29.8867 20.02 30.02C19.78 30.1533 19.5333 30.22 19.28 30.22ZM12.36 24.16C13.0133 24.1333 13.5867 24.1133 14.08 24.1C14.5733 24.0733 14.9867 24.06 15.32 24.06H16.72C16.6933 23.6867 16.6667 23.2933 16.64 22.88C16.6267 22.4667 16.62 22.0333 16.62 21.58V20.42C16.62 20.0333 16.5733 19.78 16.48 19.66C16.4 19.5267 16.24 19.46 16 19.46C15.3467 19.46 14.6933 19.8867 14.04 20.74C13.3867 21.5933 12.8267 22.7333 12.36 24.16Z" fill="#BDC1C1"/>
<path d="M18.22 29.7L17.4306 30.3139L17.4433 30.3302L17.4566 30.3459L18.22 29.7ZM17.4 27.94L18.3502 27.6284L18.3487 27.6238L17.4 27.94ZM17.06 26.78L16.0807 26.9826L16.0849 27.0027L16.0899 27.0225L17.06 26.78ZM16.88 25.66L17.8739 25.5496L17.5652 22.771L16.0416 25.115L16.88 25.66ZM16.4 26.2L16.9145 27.0575L16.9258 27.0507L16.9369 27.0437L16.4 26.2ZM13.72 26.3L13.6837 27.2993L13.6927 27.2997L13.7018 27.2998L13.72 26.3ZM11.76 26.24L11.7832 25.2403L10.8673 25.219L10.7661 26.1296L11.76 26.24ZM11.68 26.98L10.6855 26.8753L10.6829 26.8999L10.6815 26.9245L11.68 26.98ZM11.68 28.34L10.6819 28.4024L10.6839 28.4333L10.6877 28.464L11.68 28.34ZM11.74 28.96L10.7422 29.0265L10.7436 29.0466L10.7457 29.0665L11.74 28.96ZM11.3 29.86L10.7377 29.0331L10.7377 29.0331L11.3 29.86ZM9.6 28.62L10.5667 28.8759L10.5724 28.8543L10.5772 28.8324L9.6 28.62ZM9.76 27.84L10.7429 28.0243L10.7448 28.0138L9.76 27.84ZM9.48 26.54L9.98706 25.678L9.97614 25.6718L9.48 26.54ZM9.3 25.54L8.35701 25.2072L8.34815 25.2323L8.34063 25.2578L9.3 25.54ZM9.6 24.92L10.4412 25.4608L10.4495 25.4478L10.4575 25.4345L9.6 24.92ZM9.94 24.5L9.44386 23.6318L9.38981 23.6626L9.34 23.7L9.94 24.5ZM10.28 24.36L10.5673 25.3178L10.5673 25.3178L10.28 24.36ZM10.78 24.28L10.8465 25.2778L11.5068 25.2338L11.7244 24.6088L10.78 24.28ZM12.52 20.42L11.6616 19.907L11.6597 19.9102L12.52 20.42ZM14.6 17.9L15.2247 18.6809L15.2332 18.674L14.6 17.9ZM17.86 17.48L17.028 18.0347L17.0334 18.0429L17.0391 18.0511L17.86 17.48ZM18.48 23.66L19.4648 23.4862L19.4648 23.4862L18.48 23.66ZM19.22 26.42L20.1508 26.0543L20.1473 26.0455L20.1436 26.0366L19.22 26.42ZM20.44 28.26L19.7617 28.9948L19.7803 29.012L19.7998 29.0282L20.44 28.26ZM20.76 28.62L19.8656 29.0672L19.878 29.092L19.8918 29.1161L20.76 28.62ZM20.6 29.52L19.8191 28.8953L19.806 28.9117L19.7936 28.9286L20.6 29.52ZM20.02 30.02L19.5344 29.1458L19.5344 29.1458L20.02 30.02ZM12.36 24.16L11.4096 23.8491L10.9618 25.2179L12.4008 25.1592L12.36 24.16ZM14.08 24.1L14.107 25.0996L14.1205 25.0993L14.134 25.0985L14.08 24.1ZM16.72 24.06V25.06H17.794L17.7175 23.9888L16.72 24.06ZM16.64 22.88L15.6405 22.9122L15.641 22.9283L15.6421 22.9444L16.64 22.88ZM16.48 19.66L15.6225 20.1745L15.6536 20.2263L15.6906 20.2739L16.48 19.66ZM14.04 20.74L13.246 20.1321L13.246 20.1321L14.04 20.74ZM19.28 29.22C19.1921 29.22 19.1079 29.2012 18.9834 29.0541L17.4566 30.3459C17.9188 30.8921 18.5412 31.22 19.28 31.22V29.22ZM19.0094 29.0861C18.8372 28.8648 18.6068 28.4109 18.3502 27.6284L16.4498 28.2516C16.7266 29.0958 17.0428 29.8152 17.4306 30.3139L19.0094 29.0861ZM18.3487 27.6238C18.2227 27.2458 18.1167 26.8838 18.0301 26.5375L16.0899 27.0225C16.19 27.4229 16.3106 27.8342 16.4513 28.2562L18.3487 27.6238ZM18.0393 26.5774C17.965 26.2185 17.9102 25.876 17.8739 25.5496L15.8861 25.7704C15.9298 26.164 15.995 26.5681 16.0807 26.9826L18.0393 26.5774ZM16.0416 25.115C15.9741 25.2188 15.9207 25.2878 15.8826 25.3306C15.8423 25.3759 15.8348 25.3744 15.8631 25.3563L16.9369 27.0437C17.2667 26.8338 17.5213 26.5083 17.7184 26.205L16.0416 25.115ZM15.8855 25.3425C15.915 25.3248 15.9376 25.3157 15.9488 25.3116C15.9599 25.3076 15.9625 25.3077 15.9539 25.3094C15.9346 25.3133 15.8863 25.32 15.8 25.32V27.32C16.134 27.32 16.5508 27.2757 16.9145 27.0575L15.8855 25.3425ZM15.8 25.32C15.1534 25.32 14.4662 25.3134 13.7382 25.3002L13.7018 27.2998C14.4405 27.3133 15.1399 27.32 15.8 27.32V25.32ZM13.7563 25.3007C13.0198 25.2739 12.362 25.2537 11.7832 25.2403L11.7368 27.2397C12.3047 27.2529 12.9536 27.2728 13.6837 27.2993L13.7563 25.3007ZM10.7661 26.1296C10.7392 26.3716 10.7124 26.6202 10.6855 26.8753L12.6745 27.0847C12.701 26.8332 12.7274 26.5884 12.7539 26.3504L10.7661 26.1296ZM10.6815 26.9245C10.6672 27.183 10.66 27.4415 10.66 27.7H12.66C12.66 27.4785 12.6662 27.257 12.6785 27.0355L10.6815 26.9245ZM10.66 27.7C10.66 27.9342 10.6673 28.1683 10.6819 28.4024L12.6781 28.2776C12.666 28.085 12.66 27.8925 12.66 27.7H10.66ZM10.6877 28.464C10.7122 28.6596 10.7303 28.8471 10.7422 29.0265L12.7378 28.8935C12.7231 28.6729 12.7012 28.4471 12.6723 28.216L10.6877 28.464ZM10.7457 29.0665C10.7472 29.0811 10.7456 29.0809 10.7473 29.0698C10.7482 29.0644 10.7497 29.0574 10.7522 29.0494C10.7548 29.0413 10.7579 29.0333 10.7616 29.0258C10.7693 29.01 10.7762 29.0023 10.7759 29.0026C10.775 29.0036 10.7646 29.0148 10.7377 29.0331L11.8623 30.6869C12.1431 30.496 12.3943 30.2399 12.5584 29.9042C12.7244 29.5645 12.7718 29.2035 12.7343 28.8535L10.7457 29.0665ZM10.7377 29.0331C10.6041 29.1239 10.3982 29.2 10.06 29.2V31.2C10.7085 31.2 11.3292 31.0494 11.8623 30.6869L10.7377 29.0331ZM10.06 29.2C9.97045 29.2 10.0901 29.1775 10.2385 29.3074C10.3152 29.3746 10.3664 29.4552 10.3945 29.529C10.4075 29.5632 10.4138 29.5912 10.4169 29.6101C10.42 29.6288 10.42 29.6394 10.42 29.64H8.42C8.42 30.0181 8.5342 30.4737 8.9215 30.8126C9.28328 31.1291 9.72288 31.2 10.06 31.2V29.2ZM10.42 29.64C10.42 29.55 10.4505 29.3148 10.5667 28.8759L8.63329 28.3641C8.50948 28.8319 8.42 29.2767 8.42 29.64H10.42ZM10.5772 28.8324C10.6451 28.5201 10.7005 28.2501 10.7429 28.0243L8.77713 27.6557C8.73948 27.8565 8.68827 28.1065 8.62282 28.4076L10.5772 28.8324ZM10.7448 28.0138C10.7888 27.7646 10.82 27.5186 10.82 27.3H8.82C8.82 27.348 8.81124 27.4621 8.77522 27.6662L10.7448 28.0138ZM10.82 27.3C10.82 26.737 10.6385 26.0613 9.98702 25.6781L8.97298 27.4019C8.94014 27.3826 8.90689 27.3559 8.87778 27.3228C8.84902 27.2901 8.83165 27.2595 8.82218 27.2384C8.80517 27.2003 8.82 27.2081 8.82 27.3H10.82ZM9.97614 25.6718C9.98128 25.6747 10.0421 25.7103 10.1021 25.8003C10.1683 25.8997 10.2 26.0156 10.2 26.12H8.2C8.2 26.7428 8.57325 27.1736 8.98386 27.4082L9.97614 25.6718ZM10.2 26.12C10.2 26.0892 10.2081 25.9965 10.2594 25.8222L8.34063 25.2578C8.25856 25.5369 8.2 25.8308 8.2 26.12H10.2ZM10.243 25.8728C10.2993 25.7132 10.3664 25.5771 10.4412 25.4608L8.75882 24.3792C8.59364 24.6362 8.46066 24.9135 8.35701 25.2072L10.243 25.8728ZM10.4575 25.4345C10.5001 25.3636 10.5321 25.3191 10.5522 25.2942C10.5739 25.2674 10.571 25.2768 10.54 25.3L9.34 23.7C9.07979 23.8952 8.88672 24.1651 8.74251 24.4055L10.4575 25.4345ZM10.4361 25.3682C10.4475 25.3618 10.4867 25.342 10.5673 25.3178L9.99265 23.4022C9.80665 23.458 9.61918 23.5316 9.44386 23.6318L10.4361 25.3682ZM10.5673 25.3178C10.605 25.3065 10.6917 25.2881 10.8465 25.2778L10.7135 23.2822C10.4683 23.2986 10.2217 23.3335 9.99265 23.4022L10.5673 25.3178ZM11.7244 24.6088C12.2278 23.1631 12.7817 21.9399 13.3803 20.9298L11.6597 19.9102C10.9783 21.0601 10.3722 22.4103 9.83562 23.9512L11.7244 24.6088ZM13.3784 20.933C13.9909 19.908 14.6113 19.1715 15.2247 18.6809L13.9753 17.1191C13.122 17.8018 12.3558 18.7453 11.6616 19.907L13.3784 20.933ZM15.2332 18.674C15.8332 18.1831 16.3633 18 16.84 18V16C15.7967 16 14.8335 16.4169 13.9668 17.126L15.2332 18.674ZM16.84 18C16.9608 18 17.0106 18.0208 17.0192 18.0248C17.0234 18.0268 17.0229 18.027 17.021 18.0254C17.0192 18.0238 17.0218 18.0255 17.028 18.0347L18.6921 16.9253C18.2521 16.2654 17.5593 16 16.84 16V18ZM17.0391 18.0511C17.0391 18.0511 17.0393 18.0513 17.0396 18.0519C17.04 18.0525 17.0406 18.0533 17.0413 18.0545C17.0427 18.0568 17.0447 18.0604 17.0472 18.0653C17.0524 18.0752 17.0594 18.0901 17.0674 18.111C17.0839 18.1534 17.1028 18.2152 17.1204 18.3009C17.1561 18.4752 17.18 18.7173 17.18 19.04H19.18C19.18 18.2672 19.0786 17.4807 18.6809 16.9089L17.0391 18.0511ZM17.18 19.04V19.94H19.18V19.04H17.18ZM17.18 19.94C17.18 21.3354 17.2836 22.6344 17.4952 23.8338L19.4648 23.4862C19.2764 22.4189 19.18 21.238 19.18 19.94H17.18ZM17.4952 23.8338C17.7022 25.0069 17.9649 26.0047 18.2964 26.8034L20.1436 26.0366C19.8885 25.422 19.6578 24.5798 19.4648 23.4862L17.4952 23.8338ZM18.2892 26.7857C18.6304 27.654 19.1168 28.3995 19.7617 28.9948L21.1183 27.5252C20.7232 27.1605 20.3963 26.6793 20.1508 26.0543L18.2892 26.7857ZM19.7998 29.0282C19.8521 29.0718 19.8804 29.1007 19.8926 29.1144C19.8982 29.1207 19.8976 29.1206 19.893 29.1142C19.8886 29.1078 19.878 29.0922 19.8656 29.0672L21.6544 28.1728C21.5095 27.883 21.2787 27.6572 21.0802 27.4918L19.7998 29.0282ZM19.8918 29.1161C19.8773 29.0908 19.8635 29.0592 19.8538 29.0227C19.844 28.9861 19.84 28.951 19.84 28.92H21.84C21.84 28.6379 21.7672 28.3671 21.6282 28.1239L19.8918 29.1161ZM19.84 28.92C19.84 28.9029 19.8418 28.8872 19.8444 28.8739C19.847 28.8607 19.8501 28.8522 19.8515 28.8486C19.8541 28.8421 19.849 28.858 19.8191 28.8953L21.3809 30.1447C21.6423 29.8179 21.84 29.4043 21.84 28.92H19.84ZM19.7936 28.9286C19.741 29.0004 19.6619 29.075 19.5344 29.1458L20.5056 30.8942C20.8581 30.6983 21.1657 30.4396 21.4064 30.1114L19.7936 28.9286ZM19.5344 29.1458C19.4301 29.2037 19.3493 29.22 19.28 29.22V31.22C19.7173 31.22 20.1299 31.1029 20.5056 30.8942L19.5344 29.1458ZM12.4008 25.1592C13.0509 25.1326 13.6195 25.1128 14.107 25.0996L14.053 23.1004C13.5539 23.1139 12.9758 23.134 12.3192 23.1608L12.4008 25.1592ZM14.134 25.0985C14.617 25.0724 15.011 25.06 15.32 25.06V23.06C14.9623 23.06 14.5297 23.0742 14.026 23.1015L14.134 25.0985ZM15.32 25.06H16.72V23.06H15.32V25.06ZM17.7175 23.9888C17.691 23.6179 17.6645 23.2269 17.6379 22.8156L15.6421 22.9444C15.6689 23.3598 15.6957 23.7554 15.7225 24.1312L17.7175 23.9888ZM17.6395 22.8478C17.6265 22.4461 17.62 22.0236 17.62 21.58H15.62C15.62 22.0431 15.6268 22.4872 15.6405 22.9122L17.6395 22.8478ZM17.62 21.58V20.42H15.62V21.58H17.62ZM17.62 20.42C17.62 20.1929 17.6068 19.9669 17.5685 19.7588C17.5337 19.5701 17.4606 19.2919 17.2694 19.0461L15.6906 20.2739C15.6362 20.2039 15.6125 20.1463 15.6049 20.1261C15.5968 20.1044 15.5976 20.1 15.6015 20.1212C15.6052 20.1412 15.6101 20.1757 15.6139 20.2277C15.6177 20.2792 15.62 20.3429 15.62 20.42H17.62ZM17.3375 19.1455C16.9922 18.57 16.3876 18.46 16 18.46V20.46C16.0353 20.46 15.9945 20.466 15.9154 20.4331C15.8219 20.3941 15.705 20.3119 15.6225 20.1745L17.3375 19.1455ZM16 18.46C14.8792 18.46 13.9673 19.1899 13.246 20.1321L14.834 21.3479C15.4193 20.5834 15.8141 20.46 16 20.46V18.46ZM13.246 20.1321C12.5029 21.1027 11.8984 22.3545 11.4096 23.8491L13.3104 24.4709C13.7549 23.1121 14.2704 22.084 14.834 21.3479L13.246 20.1321Z" fill="#BDC1C1"/>
<path d="M20.28 29.22C19.8667 29.22 19.5133 29.0467 19.22 28.7C18.94 28.34 18.6667 27.7533 18.4 26.94C18.2667 26.54 18.1533 26.1533 18.06 25.78C17.98 25.3933 17.92 25.02 17.88 24.66C17.7067 24.9267 17.5467 25.1067 17.4 25.2C17.2667 25.28 17.0667 25.32 16.8 25.32C16.1467 25.32 15.4533 25.3133 14.72 25.3C13.9867 25.2733 13.3333 25.2533 12.76 25.24C12.7333 25.48 12.7067 25.7267 12.68 25.98C12.6667 26.22 12.66 26.46 12.66 26.7C12.66 26.9133 12.6667 27.1267 12.68 27.34C12.7067 27.5533 12.7267 27.76 12.74 27.96C12.78 28.3333 12.6333 28.6333 12.3 28.86C11.9667 29.0867 11.5533 29.2 11.06 29.2C10.6333 29.2 10.42 29.0133 10.42 28.64C10.42 28.4133 10.48 28.0733 10.6 27.62C10.6667 27.3133 10.72 27.0533 10.76 26.84C10.8 26.6133 10.82 26.4333 10.82 26.3C10.82 25.9267 10.7067 25.6733 10.48 25.54C10.2933 25.4333 10.2 25.2933 10.2 25.12C10.2 24.96 10.2333 24.7667 10.3 24.54C10.38 24.3133 10.48 24.1067 10.6 23.92C10.72 23.72 10.8333 23.58 10.94 23.5C11.0333 23.4467 11.1467 23.4 11.28 23.36C11.4133 23.32 11.58 23.2933 11.78 23.28C12.3 21.7867 12.88 20.5 13.52 19.42C14.1733 18.3267 14.8667 17.4867 15.6 16.9C16.3333 16.3 17.08 16 17.84 16C18.3067 16 18.6467 16.16 18.86 16.48C19.0733 16.7867 19.18 17.3067 19.18 18.04V18.94C19.18 20.2867 19.28 21.5267 19.48 22.66C19.68 23.7933 19.9267 24.7133 20.22 25.42C20.5133 26.1667 20.92 26.78 21.44 27.26C21.6 27.3933 21.7067 27.5133 21.76 27.62C21.8133 27.7133 21.84 27.8133 21.84 27.92C21.84 28.12 21.76 28.32 21.6 28.52C21.4533 28.72 21.26 28.8867 21.02 29.02C20.78 29.1533 20.5333 29.22 20.28 29.22ZM13.36 23.16C14.0133 23.1333 14.5867 23.1133 15.08 23.1C15.5733 23.0733 15.9867 23.06 16.32 23.06H17.72C17.6933 22.6867 17.6667 22.2933 17.64 21.88C17.6267 21.4667 17.62 21.0333 17.62 20.58V19.42C17.62 19.0333 17.5733 18.78 17.48 18.66C17.4 18.5267 17.24 18.46 17 18.46C16.3467 18.46 15.6933 18.8867 15.04 19.74C14.3867 20.5933 13.8267 21.7333 13.36 23.16Z" fill="#0097A7"/>
<path d="M19.22 28.7L18.4306 29.3139L18.4433 29.3302L18.4566 29.3459L19.22 28.7ZM18.4 26.94L19.3502 26.6284L19.3487 26.6238L18.4 26.94ZM18.06 25.78L17.0807 25.9826L17.0849 26.0027L17.0899 26.0225L18.06 25.78ZM17.88 24.66L18.8739 24.5496L18.5652 21.771L17.0416 24.115L17.88 24.66ZM17.4 25.2L17.9145 26.0575L17.9258 26.0507L17.9369 26.0437L17.4 25.2ZM14.72 25.3L14.6837 26.2993L14.6927 26.2997L14.7018 26.2998L14.72 25.3ZM12.76 25.24L12.7832 24.2403L11.8673 24.219L11.7661 25.1296L12.76 25.24ZM12.68 25.98L11.6855 25.8753L11.6829 25.8999L11.6815 25.9245L12.68 25.98ZM12.68 27.34L11.6819 27.4024L11.6839 27.4333L11.6877 27.464L12.68 27.34ZM12.74 27.96L11.7422 28.0265L11.7436 28.0466L11.7457 28.0665L12.74 27.96ZM12.3 28.86L11.7377 28.0331L11.7377 28.0331L12.3 28.86ZM10.6 27.62L11.5667 27.8759L11.5724 27.8543L11.5772 27.8324L10.6 27.62ZM10.76 26.84L11.7429 27.0243L11.7448 27.0138L10.76 26.84ZM10.48 25.54L10.9871 24.678L10.9761 24.6718L10.48 25.54ZM10.3 24.54L9.35701 24.2072L9.34815 24.2323L9.34063 24.2578L10.3 24.54ZM10.6 23.92L11.4412 24.4608L11.4495 24.4478L11.4575 24.4345L10.6 23.92ZM10.94 23.5L10.4439 22.6318L10.3898 22.6626L10.34 22.7L10.94 23.5ZM11.28 23.36L11.5673 24.3178L11.5673 24.3178L11.28 23.36ZM11.78 23.28L11.8465 24.2778L12.5068 24.2338L12.7244 23.6088L11.78 23.28ZM13.52 19.42L12.6616 18.907L12.6597 18.9102L13.52 19.42ZM15.6 16.9L16.2247 17.6809L16.2332 17.674L15.6 16.9ZM18.86 16.48L18.028 17.0347L18.0334 17.0429L18.0391 17.0511L18.86 16.48ZM19.48 22.66L20.4648 22.4862L20.4648 22.4862L19.48 22.66ZM20.22 25.42L21.1508 25.0543L21.1473 25.0455L21.1436 25.0366L20.22 25.42ZM21.44 27.26L20.7617 27.9948L20.7803 28.012L20.7998 28.0282L21.44 27.26ZM21.76 27.62L20.8656 28.0672L20.878 28.092L20.8918 28.1161L21.76 27.62ZM21.6 28.52L20.8191 27.8953L20.806 27.9117L20.7936 27.9286L21.6 28.52ZM21.02 29.02L20.5344 28.1458L20.5344 28.1458L21.02 29.02ZM13.36 23.16L12.4096 22.8491L11.9618 24.2179L13.4008 24.1592L13.36 23.16ZM15.08 23.1L15.107 24.0996L15.1205 24.0993L15.134 24.0985L15.08 23.1ZM17.72 23.06V24.06H18.794L18.7175 22.9888L17.72 23.06ZM17.64 21.88L16.6405 21.9122L16.641 21.9283L16.6421 21.9444L17.64 21.88ZM17.48 18.66L16.6225 19.1745L16.6536 19.2263L16.6906 19.2739L17.48 18.66ZM15.04 19.74L14.246 19.1321L14.246 19.1321L15.04 19.74ZM20.28 28.22C20.1921 28.22 20.1079 28.2012 19.9834 28.0541L18.4566 29.3459C18.9188 29.8921 19.5412 30.22 20.28 30.22V28.22ZM20.0094 28.0861C19.8372 27.8648 19.6068 27.4109 19.3502 26.6284L17.4498 27.2516C17.7266 28.0958 18.0428 28.8152 18.4306 29.3139L20.0094 28.0861ZM19.3487 26.6238C19.2227 26.2458 19.1167 25.8838 19.0301 25.5375L17.0899 26.0225C17.19 26.4229 17.3106 26.8342 17.4513 27.2562L19.3487 26.6238ZM19.0393 25.5774C18.965 25.2185 18.9102 24.876 18.8739 24.5496L16.8861 24.7704C16.9298 25.164 16.995 25.5681 17.0807 25.9826L19.0393 25.5774ZM17.0416 24.115C16.9741 24.2188 16.9207 24.2878 16.8826 24.3306C16.8423 24.3759 16.8348 24.3744 16.8631 24.3563L17.9369 26.0437C18.2667 25.8338 18.5213 25.5083 18.7184 25.205L17.0416 24.115ZM16.8855 24.3425C16.915 24.3248 16.9376 24.3157 16.9488 24.3116C16.9599 24.3076 16.9625 24.3077 16.9539 24.3094C16.9346 24.3133 16.8863 24.32 16.8 24.32V26.32C17.134 26.32 17.5508 26.2757 17.9145 26.0575L16.8855 24.3425ZM16.8 24.32C16.1534 24.32 15.4662 24.3134 14.7382 24.3002L14.7018 26.2998C15.4405 26.3133 16.1399 26.32 16.8 26.32V24.32ZM14.7563 24.3007C14.0198 24.2739 13.362 24.2537 12.7832 24.2403L12.7368 26.2397C13.3047 26.2529 13.9536 26.2728 14.6837 26.2993L14.7563 24.3007ZM11.7661 25.1296C11.7392 25.3716 11.7124 25.6202 11.6855 25.8753L13.6745 26.0847C13.701 25.8332 13.7274 25.5884 13.7539 25.3504L11.7661 25.1296ZM11.6815 25.9245C11.6672 26.183 11.66 26.4415 11.66 26.7H13.66C13.66 26.4785 13.6662 26.257 13.6785 26.0355L11.6815 25.9245ZM11.66 26.7C11.66 26.9342 11.6673 27.1683 11.6819 27.4024L13.6781 27.2776C13.666 27.085 13.66 26.8925 13.66 26.7H11.66ZM11.6877 27.464C11.7122 27.6596 11.7303 27.8471 11.7422 28.0265L13.7378 27.8935C13.7231 27.6729 13.7012 27.4471 13.6723 27.216L11.6877 27.464ZM11.7457 28.0665C11.7472 28.0811 11.7456 28.0809 11.7473 28.0698C11.7482 28.0644 11.7497 28.0574 11.7522 28.0494C11.7548 28.0413 11.7579 28.0333 11.7616 28.0258C11.7693 28.01 11.7762 28.0023 11.7759 28.0026C11.775 28.0036 11.7646 28.0148 11.7377 28.0331L12.8623 29.6869C13.1431 29.496 13.3943 29.2399 13.5584 28.9042C13.7244 28.5645 13.7718 28.2035 13.7343 27.8535L11.7457 28.0665ZM11.7377 28.0331C11.6041 28.1239 11.3982 28.2 11.06 28.2V30.2C11.7085 30.2 12.3292 30.0494 12.8623 29.6869L11.7377 28.0331ZM11.06 28.2C10.9704 28.2 11.0901 28.1775 11.2385 28.3074C11.3152 28.3746 11.3664 28.4552 11.3945 28.529C11.4075 28.5632 11.4138 28.5912 11.4169 28.6101C11.42 28.6288 11.42 28.6394 11.42 28.64H9.42C9.42 29.0181 9.5342 29.4737 9.9215 29.8126C10.2833 30.1291 10.7229 30.2 11.06 30.2V28.2ZM11.42 28.64C11.42 28.55 11.4505 28.3148 11.5667 27.8759L9.63329 27.3641C9.50948 27.8319 9.42 28.2767 9.42 28.64H11.42ZM11.5772 27.8324C11.6451 27.5201 11.7005 27.2501 11.7429 27.0243L9.77713 26.6557C9.73948 26.8565 9.68827 27.1065 9.62282 27.4076L11.5772 27.8324ZM11.7448 27.0138C11.7888 26.7646 11.82 26.5186 11.82 26.3H9.82C9.82 26.348 9.81124 26.4621 9.77522 26.6662L11.7448 27.0138ZM11.82 26.3C11.82 25.737 11.6385 25.0613 10.987 24.6781L9.97298 26.4019C9.94014 26.3826 9.90689 26.3559 9.87778 26.3228C9.84902 26.2901 9.83165 26.2595 9.82218 26.2384C9.80517 26.2003 9.82 26.2081 9.82 26.3H11.82ZM10.9761 24.6718C10.9813 24.6747 11.0421 24.7103 11.1021 24.8003C11.1683 24.8997 11.2 25.0156 11.2 25.12H9.2C9.2 25.7428 9.57325 26.1736 9.98386 26.4082L10.9761 24.6718ZM11.2 25.12C11.2 25.0892 11.2081 24.9965 11.2594 24.8222L9.34063 24.2578C9.25856 24.5369 9.2 24.8308 9.2 25.12H11.2ZM11.243 24.8728C11.2993 24.7132 11.3664 24.5771 11.4412 24.4608L9.75882 23.3792C9.59364 23.6362 9.46066 23.9135 9.35701 24.2072L11.243 24.8728ZM11.4575 24.4345C11.5001 24.3636 11.5321 24.3191 11.5522 24.2942C11.5739 24.2674 11.571 24.2768 11.54 24.3L10.34 22.7C10.0798 22.8952 9.88672 23.1651 9.74251 23.4055L11.4575 24.4345ZM11.4361 24.3682C11.4475 24.3618 11.4867 24.342 11.5673 24.3178L10.9927 22.4022C10.8066 22.458 10.6192 22.5316 10.4439 22.6318L11.4361 24.3682ZM11.5673 24.3178C11.605 24.3065 11.6917 24.2881 11.8465 24.2778L11.7135 22.2822C11.4683 22.2986 11.2217 22.3335 10.9927 22.4022L11.5673 24.3178ZM12.7244 23.6088C13.2278 22.1631 13.7817 20.9399 14.3803 19.9298L12.6597 18.9102C11.9783 20.0601 11.3722 21.4103 10.8356 22.9512L12.7244 23.6088ZM14.3784 19.933C14.9909 18.908 15.6113 18.1715 16.2247 17.6809L14.9753 16.1191C14.122 16.8018 13.3558 17.7453 12.6616 18.907L14.3784 19.933ZM16.2332 17.674C16.8332 17.1831 17.3633 17 17.84 17V15C16.7967 15 15.8335 15.4169 14.9668 16.126L16.2332 17.674ZM17.84 17C17.9608 17 18.0106 17.0208 18.0192 17.0248C18.0234 17.0268 18.0229 17.027 18.021 17.0254C18.0192 17.0238 18.0218 17.0255 18.028 17.0347L19.6921 15.9253C19.2521 15.2654 18.5593 15 17.84 15V17ZM18.0391 17.0511C18.0391 17.0511 18.0393 17.0513 18.0396 17.0519C18.04 17.0525 18.0406 17.0533 18.0413 17.0545C18.0427 17.0568 18.0447 17.0604 18.0472 17.0653C18.0524 17.0752 18.0594 17.0901 18.0674 17.111C18.0839 17.1534 18.1028 17.2152 18.1204 17.3009C18.1561 17.4752 18.18 17.7173 18.18 18.04H20.18C20.18 17.2672 20.0786 16.4807 19.6809 15.9089L18.0391 17.0511ZM18.18 18.04V18.94H20.18V18.04H18.18ZM18.18 18.94C18.18 20.3354 18.2836 21.6344 18.4952 22.8338L20.4648 22.4862C20.2764 21.4189 20.18 20.238 20.18 18.94H18.18ZM18.4952 22.8338C18.7022 24.0069 18.9649 25.0047 19.2964 25.8034L21.1436 25.0366C20.8885 24.422 20.6578 23.5798 20.4648 22.4862L18.4952 22.8338ZM19.2892 25.7857C19.6304 26.654 20.1168 27.3995 20.7617 27.9948L22.1183 26.5252C21.7232 26.1605 21.3963 25.6793 21.1508 25.0543L19.2892 25.7857ZM20.7998 28.0282C20.8521 28.0718 20.8804 28.1007 20.8926 28.1144C20.8982 28.1207 20.8976 28.1206 20.893 28.1142C20.8886 28.1078 20.878 28.0922 20.8656 28.0672L22.6544 27.1728C22.5095 26.883 22.2787 26.6572 22.0802 26.4918L20.7998 28.0282ZM20.8918 28.1161C20.8773 28.0908 20.8635 28.0592 20.8538 28.0227C20.844 27.9861 20.84 27.951 20.84 27.92H22.84C22.84 27.6379 22.7672 27.3671 22.6282 27.1239L20.8918 28.1161ZM20.84 27.92C20.84 27.9029 20.8418 27.8872 20.8444 27.8739C20.847 27.8607 20.8501 27.8522 20.8515 27.8486C20.8541 27.8421 20.849 27.858 20.8191 27.8953L22.3809 29.1447C22.6423 28.8179 22.84 28.4043 22.84 27.92H20.84ZM20.7936 27.9286C20.741 28.0004 20.6619 28.075 20.5344 28.1458L21.5056 29.8942C21.8581 29.6983 22.1657 29.4396 22.4064 29.1114L20.7936 27.9286ZM20.5344 28.1458C20.4301 28.2037 20.3493 28.22 20.28 28.22V30.22C20.7173 30.22 21.1299 30.1029 21.5056 29.8942L20.5344 28.1458ZM13.4008 24.1592C14.0509 24.1326 14.6195 24.1128 15.107 24.0996L15.053 22.1004C14.5539 22.1139 13.9758 22.134 13.3192 22.1608L13.4008 24.1592ZM15.134 24.0985C15.617 24.0724 16.011 24.06 16.32 24.06V22.06C15.9623 22.06 15.5297 22.0742 15.026 22.1015L15.134 24.0985ZM16.32 24.06H17.72V22.06H16.32V24.06ZM18.7175 22.9888C18.691 22.6179 18.6645 22.2269 18.6379 21.8156L16.6421 21.9444C16.6689 22.3598 16.6957 22.7554 16.7225 23.1312L18.7175 22.9888ZM18.6395 21.8478C18.6265 21.4461 18.62 21.0236 18.62 20.58H16.62C16.62 21.0431 16.6268 21.4872 16.6405 21.9122L18.6395 21.8478ZM18.62 20.58V19.42H16.62V20.58H18.62ZM18.62 19.42C18.62 19.1929 18.6068 18.9669 18.5685 18.7588C18.5337 18.5701 18.4606 18.2919 18.2694 18.0461L16.6906 19.2739C16.6362 19.2039 16.6125 19.1463 16.6049 19.1261C16.5968 19.1044 16.5976 19.1 16.6015 19.1212C16.6052 19.1412 16.6101 19.1757 16.6139 19.2277C16.6177 19.2792 16.62 19.3429 16.62 19.42H18.62ZM18.3375 18.1455C17.9922 17.57 17.3876 17.46 17 17.46V19.46C17.0353 19.46 16.9945 19.466 16.9154 19.4331C16.8219 19.3941 16.705 19.3119 16.6225 19.1745L18.3375 18.1455ZM17 17.46C15.8792 17.46 14.9673 18.1899 14.246 19.1321L15.834 20.3479C16.4193 19.5834 16.8141 19.46 17 19.46V17.46ZM14.246 19.1321C13.5029 20.1027 12.8984 21.3545 12.4096 22.8491L14.3104 23.4709C14.7549 22.1121 15.2704 21.084 15.834 20.3479L14.246 19.1321Z" fill="#0097A7"/>
<path d="M23.88 19.22C23.4 19.22 23.1867 19.06 23.24 18.74C23.3867 18.1667 23.5067 17.5867 23.6 17C23.7067 16.4 23.76 15.8267 23.76 15.28C23.76 14.5733 23.7133 14.06 23.62 13.74C23.54 13.4067 23.4267 13.18 23.28 13.06C23.1333 12.9267 22.9533 12.8267 22.74 12.76C22.6467 12.72 22.56 12.6667 22.48 12.6C22.4133 12.5333 22.38 12.44 22.38 12.32C22.38 12.1333 22.4533 11.9267 22.6 11.7C22.7467 11.4733 22.9533 11.28 23.22 11.12C23.5 10.9467 23.8133 10.86 24.16 10.86C24.6133 10.86 24.9267 11.02 25.1 11.34C25.2733 11.6467 25.36 12.0533 25.36 12.56C25.36 12.8933 25.3267 13.2667 25.26 13.68C25.1933 14.0933 25.1267 14.4667 25.06 14.8L25.1 14.82C25.3133 14.1133 25.5733 13.46 25.88 12.86C26.2 12.26 26.58 11.7733 27.02 11.4C27.4733 11.0267 27.9933 10.84 28.58 10.84C29.18 10.84 29.6533 11.0467 30 11.46C30.3467 11.86 30.52 12.4533 30.52 13.24V13.68C30.9067 12.8667 31.3733 12.1867 31.92 11.64C32.48 11.0933 33.1533 10.82 33.94 10.82C34.58 10.82 35.08 11.0333 35.44 11.46C35.8 11.8867 35.98 12.42 35.98 13.06C35.98 13.3133 35.9533 13.56 35.9 13.8C35.8467 14.0267 35.7867 14.2533 35.72 14.48C35.6667 14.6933 35.6133 14.9133 35.56 15.14C35.5067 15.3667 35.48 15.5933 35.48 15.82C35.48 16.62 35.82 17.14 36.5 17.38C36.5933 17.42 36.6667 17.4667 36.72 17.52C36.7733 17.56 36.8 17.64 36.8 17.76C36.8 17.88 36.76 18.0533 36.68 18.28C36.6133 18.5067 36.4733 18.72 36.26 18.92C36.0467 19.1067 35.74 19.2 35.34 19.2C34.82 19.2 34.42 19.0133 34.14 18.64C33.86 18.2533 33.72 17.7667 33.72 17.18C33.72 16.8867 33.7467 16.58 33.8 16.26C33.8533 15.94 33.92 15.6333 34 15.34C34.0667 15.0733 34.12 14.82 34.16 14.58C34.2133 14.34 34.24 14.1333 34.24 13.96C34.24 13.64 34.16 13.4067 34 13.26C33.8533 13.1133 33.6533 13.04 33.4 13.04C32.9733 13.04 32.5867 13.1733 32.24 13.44C31.9067 13.7067 31.6067 14.0533 31.34 14.48C31.0867 14.9067 30.8667 15.3733 30.68 15.88C30.6933 16 30.7 16.16 30.7 16.36C30.7133 16.5467 30.72 16.7133 30.72 16.86C30.72 17.1133 30.7 17.38 30.66 17.66C30.6333 17.94 30.5733 18.1733 30.48 18.36C30.3733 18.6133 30.2133 18.82 30 18.98C29.8 19.14 29.5267 19.22 29.18 19.22C29.0333 19.22 28.8933 19.1867 28.76 19.12C28.6267 19.0667 28.56 18.9733 28.56 18.84C28.56 18.7867 28.6 18.5533 28.68 18.14C28.76 17.7133 28.84 17.1933 28.92 16.58C29 15.9667 29.04 15.3667 29.04 14.78C29.04 14.14 28.9733 13.7 28.84 13.46C28.7067 13.2067 28.5067 13.08 28.24 13.08C27.9067 13.08 27.5867 13.22 27.28 13.5C26.9867 13.78 26.7133 14.14 26.46 14.58C26.22 15.02 26.0067 15.48 25.82 15.96C25.6467 16.44 25.5067 16.8867 25.4 17.3V17.52C25.4 18.0133 25.26 18.42 24.98 18.74C24.7133 19.06 24.3467 19.22 23.88 19.22Z" fill="#BDC1C1"/>
<path d="M23.24 18.74L22.2712 18.4922L22.2606 18.5335L22.2536 18.5756L23.24 18.74ZM23.6 17L22.6154 16.825L22.6138 16.8339L22.6124 16.8429L23.6 17ZM23.62 13.74L22.6476 13.9734L22.6532 13.9968L22.66 14.02L23.62 13.74ZM23.28 13.06L22.6073 13.7999L22.6266 13.8175L22.6468 13.834L23.28 13.06ZM22.74 12.76L22.3461 13.6791L22.393 13.6993L22.4417 13.7145L22.74 12.76ZM22.48 12.6L21.7729 13.3071L21.805 13.3392L21.8398 13.3682L22.48 12.6ZM22.6 11.7L23.4396 12.2433L23.4396 12.2433L22.6 11.7ZM23.22 11.12L23.7345 11.9776L23.7464 11.9703L23.22 11.12ZM25.1 11.34L24.2207 11.8163L24.225 11.8242L24.2294 11.8321L25.1 11.34ZM25.26 13.68L24.2728 13.5208L24.2728 13.5208L25.26 13.68ZM25.06 14.8L24.0794 14.6039L23.9296 15.3528L24.6128 15.6944L25.06 14.8ZM25.1 14.82L24.6528 15.7144L25.7143 16.2452L26.0573 15.109L25.1 14.82ZM25.88 12.86L24.9976 12.3894L24.9935 12.3971L24.9896 12.4049L25.88 12.86ZM27.02 11.4L26.3843 10.6281L26.3786 10.6327L26.373 10.6375L27.02 11.4ZM30 11.46L29.2338 12.1026L29.239 12.1088L29.2443 12.1149L30 11.46ZM30.52 13.68H29.52L31.4231 14.1094L30.52 13.68ZM31.92 11.64L31.2214 10.9244L31.2129 10.9329L31.92 11.64ZM35.44 11.46L34.6757 12.1049L34.6757 12.1049L35.44 11.46ZM35.9 13.8L36.8735 14.0291L36.8762 14.0169L35.9 13.8ZM35.72 14.48L34.7606 14.1978L34.7548 14.2175L34.7499 14.2375L35.72 14.48ZM35.56 15.14L36.5334 15.369L36.5334 15.369L35.56 15.14ZM36.5 17.38L36.8939 16.4609L36.8638 16.4479L36.8328 16.437L36.5 17.38ZM36.72 17.52L36.0129 18.2271L36.0631 18.2774L36.12 18.32L36.72 17.52ZM36.68 18.28L35.737 17.9472L35.7281 17.9723L35.7206 17.9978L36.68 18.28ZM36.26 18.92L36.9185 19.6726L36.9314 19.6613L36.9439 19.6495L36.26 18.92ZM34.14 18.64L33.3301 19.2265L33.335 19.2333L33.34 19.24L34.14 18.64ZM34 15.34L34.9648 15.6031L34.9676 15.5929L34.9701 15.5825L34 15.34ZM34.16 14.58L33.1838 14.3631L33.178 14.3892L33.1736 14.4156L34.16 14.58ZM34 13.26L33.2929 13.9671L33.3083 13.9825L33.3243 13.9972L34 13.26ZM32.24 13.44L31.6303 12.6474L31.6227 12.6532L31.6153 12.6591L32.24 13.44ZM31.34 14.48L30.492 13.95L30.486 13.9597L30.4801 13.9695L31.34 14.48ZM30.68 15.88L29.7417 15.5343L29.66 15.7558L29.6861 15.9904L30.68 15.88ZM30.7 16.36H29.7V16.3957L29.7025 16.4312L30.7 16.36ZM30.66 17.66L29.6701 17.5186L29.6667 17.5418L29.6645 17.5652L30.66 17.66ZM30.48 18.36L29.5856 17.9128L29.571 17.9419L29.5584 17.9719L30.48 18.36ZM30 18.98L29.4 18.18L29.3875 18.1894L29.3753 18.1991L30 18.98ZM28.76 19.12L29.2072 18.2256L29.17 18.207L29.1314 18.1915L28.76 19.12ZM28.68 18.14L29.6618 18.33L29.6629 18.3243L28.68 18.14ZM28.84 13.46L27.9551 13.9257L27.9603 13.9358L27.9658 13.9456L28.84 13.46ZM27.28 13.5L26.6057 12.7615L26.5975 12.769L26.5895 12.7766L27.28 13.5ZM26.46 14.58L25.5934 14.081L25.5876 14.091L25.5821 14.1011L26.46 14.58ZM25.82 15.96L24.888 15.5976L24.8836 15.6089L24.8794 15.6204L25.82 15.96ZM25.4 17.3L24.4317 17.0501L24.4 17.173V17.3H25.4ZM24.98 18.74L24.2274 18.0815L24.2195 18.0906L24.2118 18.0998L24.98 18.74ZM23.88 18.22C23.8113 18.22 23.7873 18.2139 23.7949 18.2156C23.801 18.217 23.8712 18.2334 23.96 18.3C24.0601 18.3751 24.1508 18.49 24.1987 18.6338C24.2428 18.7661 24.2325 18.8677 24.2264 18.9044L22.2536 18.5756C22.1815 19.0083 22.2842 19.5431 22.76 19.9C23.1312 20.1784 23.5759 20.22 23.88 20.22V18.22ZM24.2088 18.9878C24.3632 18.3845 24.4894 17.7742 24.5876 17.1571L22.6124 16.8429C22.5239 17.3992 22.4102 17.9489 22.2712 18.4922L24.2088 18.9878ZM24.5846 17.175C24.7003 16.5237 24.76 15.8916 24.76 15.28H22.76C22.76 15.7617 22.713 16.2763 22.6154 16.825L24.5846 17.175ZM24.76 15.28C24.76 14.5599 24.7157 13.9253 24.58 13.46L22.66 14.02C22.711 14.1947 22.76 14.5867 22.76 15.28H24.76ZM24.5924 13.5066C24.4976 13.1119 24.3189 12.618 23.9132 12.286L22.6468 13.834C22.5808 13.78 22.5668 13.7397 22.5806 13.7672C22.5937 13.7934 22.6196 13.8566 22.6476 13.9734L24.5924 13.5066ZM23.9527 12.3201C23.6853 12.077 23.3727 11.91 23.0383 11.8055L22.4417 13.7145C22.5339 13.7433 22.5813 13.7763 22.6073 13.7999L23.9527 12.3201ZM23.1339 11.8409C23.1318 11.84 23.1277 11.8381 23.1202 11.8318L21.8398 13.3682C21.9923 13.4953 22.1615 13.6 22.3461 13.6791L23.1339 11.8409ZM23.1871 11.8929C23.2638 11.9696 23.3162 12.0582 23.3467 12.1437C23.3758 12.225 23.38 12.2888 23.38 12.32H21.38C21.38 12.6293 21.4711 13.0053 21.7729 13.3071L23.1871 11.8929ZM23.38 12.32C23.38 12.3586 23.3724 12.3737 23.3774 12.3594C23.3829 12.344 23.3992 12.3056 23.4396 12.2433L21.7604 11.1567C21.5534 11.4767 21.38 11.8726 21.38 12.32H23.38ZM23.4396 12.2433C23.4915 12.1629 23.5789 12.0709 23.7345 11.9775L22.7055 10.2625C22.3278 10.4891 22.0018 10.7837 21.7604 11.1567L23.4396 12.2433ZM23.7464 11.9703C23.8597 11.9001 23.989 11.86 24.16 11.86V9.86C23.6376 9.86 23.1403 9.99326 22.6936 10.2697L23.7464 11.9703ZM24.16 11.86C24.2727 11.86 24.2991 11.8802 24.2802 11.8706C24.2701 11.8655 24.2557 11.8559 24.2415 11.842C24.2276 11.8282 24.2214 11.8175 24.2207 11.8163L25.9793 10.8637C25.5857 10.1371 24.8739 9.86 24.16 9.86V11.86ZM24.2294 11.8321C24.2888 11.937 24.36 12.1548 24.36 12.56H26.36C26.36 11.9519 26.2579 11.3563 25.9706 10.8479L24.2294 11.8321ZM24.36 12.56C24.36 12.8285 24.333 13.1474 24.2728 13.5208L26.2472 13.8392C26.3204 13.3859 26.36 12.9581 26.36 12.56H24.36ZM24.2728 13.5208C24.2076 13.9245 24.1432 14.2852 24.0794 14.6039L26.0406 14.9961C26.1102 14.6481 26.179 14.2622 26.2472 13.8392L24.2728 13.5208ZM24.6128 15.6944L24.6528 15.7144L25.5472 13.9256L25.5072 13.9056L24.6128 15.6944ZM26.0573 15.109C26.255 14.4542 26.4934 13.8571 26.7704 13.3151L24.9896 12.4049C24.6532 13.0629 24.3717 13.7724 24.1427 14.531L26.0573 15.109ZM26.7624 13.3306C27.0334 12.8224 27.3387 12.4411 27.667 12.1625L26.373 10.6375C25.8213 11.1056 25.3666 11.6976 24.9976 12.3894L26.7624 13.3306ZM27.6557 12.1719C27.9302 11.9459 28.2255 11.84 28.58 11.84V9.84C27.7611 9.84 27.0165 10.1075 26.3843 10.6281L27.6557 12.1719ZM28.58 11.84C28.9217 11.84 29.0999 11.943 29.2338 12.1026L30.7662 10.8174C30.2067 10.1503 29.4383 9.84 28.58 9.84V11.84ZM29.2443 12.1149C29.3722 12.2625 29.52 12.5803 29.52 13.24H31.52C31.52 12.3264 31.3211 11.4575 30.7557 10.8051L29.2443 12.1149ZM29.52 13.24V13.68H31.52V13.24H29.52ZM31.4231 14.1094C31.7687 13.3825 32.1732 12.801 32.6271 12.3471L31.2129 10.9329C30.5734 11.5724 30.0446 12.3509 29.6169 13.2506L31.4231 14.1094ZM32.6185 12.3556C32.9907 11.9923 33.4129 11.82 33.94 11.82V9.82C32.8938 9.82 31.9693 10.1943 31.2215 10.9244L32.6185 12.3556ZM33.94 11.82C34.3335 11.82 34.5347 11.9378 34.6757 12.1049L36.2043 10.8151C35.6253 10.1289 34.8265 9.82 33.94 9.82V11.82ZM34.6757 12.1049C34.8615 12.325 34.98 12.6194 34.98 13.06H36.98C36.98 12.2206 36.7386 11.4483 36.2043 10.8151L34.6757 12.1049ZM34.98 13.06C34.98 13.2426 34.9608 13.4164 34.9238 13.5831L36.8762 14.0169C36.9458 13.7036 36.98 13.3841 36.98 13.06H34.98ZM34.9266 13.571C34.8775 13.7795 34.8222 13.9885 34.7606 14.1978L36.6794 14.7622C36.7511 14.5182 36.8158 14.2738 36.8734 14.029L34.9266 13.571ZM34.7499 14.2375C34.6953 14.4555 34.6409 14.68 34.5866 14.911L36.5334 15.369C36.5858 15.1466 36.638 14.9311 36.6901 14.7225L34.7499 14.2375ZM34.5866 14.911C34.5161 15.2106 34.48 15.5141 34.48 15.82H36.48C36.48 15.6725 36.4973 15.5227 36.5334 15.369L34.5866 14.911ZM34.48 15.82C34.48 16.359 34.5949 16.8937 34.898 17.3572C35.2068 17.8294 35.6549 18.1422 36.1672 18.323L36.8328 16.437C36.6651 16.3778 36.6032 16.3106 36.572 16.2628C36.5351 16.2063 36.48 16.081 36.48 15.82H34.48ZM36.1061 18.2991C36.1112 18.3013 36.1038 18.2986 36.0881 18.2887C36.0723 18.2786 36.0449 18.2591 36.0129 18.2271L37.4271 16.8129C37.2585 16.6443 37.0661 16.5347 36.8939 16.4609L36.1061 18.2991ZM36.12 18.32C35.9455 18.1891 35.8652 18.028 35.8313 17.9262C35.7996 17.8311 35.8 17.7659 35.8 17.76H37.8C37.8 17.566 37.7698 17.0574 37.32 16.72L36.12 18.32ZM35.8 17.76C35.8 17.7358 35.8019 17.7231 35.8017 17.7249C35.8015 17.7261 35.8001 17.7358 35.7956 17.7551C35.7864 17.7951 35.7685 17.8578 35.737 17.9472L37.623 18.6128C37.7107 18.3643 37.8 18.0577 37.8 17.76H35.8ZM35.7206 17.9978C35.7149 18.0172 35.69 18.0836 35.5761 18.1905L36.9439 19.6495C37.2566 19.3564 37.5117 18.9961 37.6394 18.5622L35.7206 17.9978ZM35.6015 18.1674C35.6331 18.1397 35.5966 18.2 35.34 18.2V20.2C35.8834 20.2 36.4602 20.0736 36.9185 19.6726L35.6015 18.1674ZM35.34 18.2C35.0934 18.2 35.0076 18.1302 34.94 18.04L33.34 19.24C33.8324 19.8965 34.5466 20.2 35.34 20.2V18.2ZM34.9499 18.0535C34.8194 17.8732 34.72 17.605 34.72 17.18H32.72C32.72 17.9283 32.9006 18.6334 33.3301 19.2265L34.9499 18.0535ZM34.72 17.18C34.72 16.9472 34.7412 16.6957 34.7864 16.4244L32.8136 16.0956C32.7522 16.4643 32.72 16.8262 32.72 17.18H34.72ZM34.7864 16.4244C34.8346 16.1355 34.8942 15.8619 34.9648 15.6031L33.0352 15.0769C32.9458 15.4048 32.8721 15.7445 32.8136 16.0956L34.7864 16.4244ZM34.9701 15.5825C35.0425 15.2933 35.1015 15.0138 35.1464 14.7444L33.1736 14.4156C33.1385 14.6262 33.0909 14.8534 33.0299 15.0975L34.9701 15.5825ZM35.1362 14.7969C35.1993 14.5127 35.24 14.2296 35.24 13.96H33.24C33.24 14.0371 33.2273 14.1673 33.1838 14.3631L35.1362 14.7969ZM35.24 13.96C35.24 13.4938 35.1239 12.9337 34.6757 12.5228L33.3243 13.9972C33.2967 13.9718 33.2752 13.945 33.2595 13.9202C33.2442 13.896 33.2368 13.8775 33.2341 13.8693C33.2294 13.8558 33.24 13.8793 33.24 13.96H35.24ZM34.7071 12.5529C34.3329 12.1787 33.8561 12.04 33.4 12.04V14.04C33.4309 14.04 33.4247 14.0445 33.3957 14.0339C33.3632 14.0219 33.3251 13.9993 33.2929 13.9671L34.7071 12.5529ZM33.4 12.04C32.7469 12.04 32.147 12.2499 31.6303 12.6474L32.8497 14.2326C33.0263 14.0968 33.1998 14.04 33.4 14.04V12.04ZM31.6153 12.6591C31.1798 13.0076 30.808 13.4444 30.492 13.95L32.188 15.01C32.4053 14.6623 32.6336 14.4058 32.8647 14.2209L31.6153 12.6591ZM30.4801 13.9695C30.1931 14.4529 29.9476 14.9754 29.7417 15.5343L31.6183 16.2257C31.7858 15.7713 31.9802 15.3604 32.1999 14.9905L30.4801 13.9695ZM29.6861 15.9904C29.6936 16.0578 29.7 16.1764 29.7 16.36H31.7C31.7 16.1436 31.6931 15.9422 31.6739 15.7696L29.6861 15.9904ZM29.7025 16.4312C29.7146 16.6003 29.72 16.7425 29.72 16.86H31.72C31.72 16.6841 31.7121 16.493 31.6975 16.2888L29.7025 16.4312ZM29.72 16.86C29.72 17.0609 29.7041 17.2801 29.6701 17.5186L31.65 17.8014C31.6959 17.4799 31.72 17.1657 31.72 16.86H29.72ZM29.6645 17.5652C29.6457 17.7625 29.6083 17.8674 29.5856 17.9128L31.3744 18.8072C31.5384 18.4793 31.621 18.1175 31.6555 17.7548L29.6645 17.5652ZM29.5584 17.9719C29.5183 18.0671 29.467 18.1297 29.4 18.18L30.6 19.78C30.9597 19.5103 31.2284 19.1595 31.4016 18.7481L29.5584 17.9719ZM29.3753 18.1991C29.4063 18.1743 29.3795 18.22 29.18 18.22V20.22C29.6738 20.22 30.1937 20.1057 30.6247 19.7609L29.3753 18.1991ZM29.18 18.22C29.1832 18.22 29.1893 18.2204 29.1966 18.2222C29.2039 18.2239 29.2077 18.2258 29.2072 18.2256L28.3128 20.0144C28.5826 20.1493 28.8755 20.22 29.18 20.22V18.22ZM29.1314 18.1915C29.1977 18.2181 29.3209 18.2848 29.4237 18.4288C29.5304 18.5781 29.56 18.7332 29.56 18.84H27.56C27.56 19.0801 27.6229 19.3486 27.7963 19.5912C27.9658 19.8286 28.189 19.9686 28.3886 20.0485L29.1314 18.1915ZM29.56 18.84C29.56 18.8656 29.5589 18.8849 29.5583 18.8937C29.5576 18.9036 29.557 18.9104 29.5567 18.9127C29.5563 18.917 29.5564 18.9151 29.5579 18.9044C29.5609 18.8833 29.5664 18.8476 29.5756 18.794C29.5938 18.6877 29.6223 18.5342 29.6618 18.33L27.6982 17.95C27.6577 18.1592 27.6262 18.3289 27.6044 18.456C27.5908 18.5353 27.56 18.7075 27.56 18.84H29.56ZM29.6629 18.3243C29.7474 17.8736 29.8301 17.3341 29.9116 16.7093L27.9284 16.4507C27.8499 17.0526 27.7726 17.5531 27.6971 17.9557L29.6629 18.3243ZM29.9116 16.7093C29.9969 16.0554 30.04 15.4122 30.04 14.78H28.04C28.04 15.3212 28.0031 15.8779 27.9284 16.4507L29.9116 16.7093ZM30.04 14.78C30.04 14.4296 30.022 14.1061 29.9787 13.8202C29.9372 13.5462 29.8635 13.2431 29.7142 12.9744L27.9658 13.9456C27.9499 13.9169 27.9761 13.9538 28.0013 14.1198C28.0246 14.2739 28.04 14.4904 28.04 14.78H30.04ZM29.7249 12.9943C29.5938 12.7451 29.4009 12.5049 29.1251 12.3302C28.8454 12.1531 28.5381 12.08 28.24 12.08V14.08C28.2085 14.08 28.1346 14.0703 28.0549 14.0198C27.9791 13.9718 27.9529 13.9215 27.9551 13.9257L29.7249 12.9943ZM28.24 12.08C27.5998 12.08 27.0494 12.3564 26.6057 12.7615L27.9543 14.2385C28.1239 14.0836 28.2135 14.08 28.24 14.08V12.08ZM26.5895 12.7766C26.2122 13.1368 25.883 13.5781 25.5934 14.081L27.3266 15.079C27.5437 14.7019 27.7611 14.4232 27.9705 14.2234L26.5895 12.7766ZM25.5821 14.1011C25.321 14.5798 25.0898 15.0787 24.888 15.5976L26.752 16.3224C26.9236 15.8813 27.119 15.4602 27.3379 15.0589L25.5821 14.1011ZM24.8794 15.6204C24.6975 16.1243 24.5476 16.6013 24.4317 17.0501L26.3683 17.5499C26.4658 17.1721 26.5959 16.7557 26.7606 16.2996L24.8794 15.6204ZM24.4 17.3V17.52H26.4V17.3H24.4ZM24.4 17.52C24.4 17.8123 24.3228 17.9725 24.2274 18.0815L25.7326 19.3985C26.1972 18.8675 26.4 18.2144 26.4 17.52H24.4ZM24.2118 18.0998C24.1594 18.1626 24.0901 18.22 23.88 18.22V20.22C24.6032 20.22 25.2672 19.9574 25.7482 19.3802L24.2118 18.0998Z" fill="#BDC1C1"/>
<path d="M22.88 20.22C22.4 20.22 22.1867 20.06 22.24 19.74C22.3867 19.1667 22.5067 18.5867 22.6 18C22.7067 17.4 22.76 16.8267 22.76 16.28C22.76 15.5733 22.7133 15.06 22.62 14.74C22.54 14.4067 22.4267 14.18 22.28 14.06C22.1333 13.9267 21.9533 13.8267 21.74 13.76C21.6467 13.72 21.56 13.6667 21.48 13.6C21.4133 13.5333 21.38 13.44 21.38 13.32C21.38 13.1333 21.4533 12.9267 21.6 12.7C21.7467 12.4733 21.9533 12.28 22.22 12.12C22.5 11.9467 22.8133 11.86 23.16 11.86C23.6133 11.86 23.9267 12.02 24.1 12.34C24.2733 12.6467 24.36 13.0533 24.36 13.56C24.36 13.8933 24.3267 14.2667 24.26 14.68C24.1933 15.0933 24.1267 15.4667 24.06 15.8L24.1 15.82C24.3133 15.1133 24.5733 14.46 24.88 13.86C25.2 13.26 25.58 12.7733 26.02 12.4C26.4733 12.0267 26.9933 11.84 27.58 11.84C28.18 11.84 28.6533 12.0467 29 12.46C29.3467 12.86 29.52 13.4533 29.52 14.24V14.68C29.9067 13.8667 30.3733 13.1867 30.92 12.64C31.48 12.0933 32.1533 11.82 32.94 11.82C33.58 11.82 34.08 12.0333 34.44 12.46C34.8 12.8867 34.98 13.42 34.98 14.06C34.98 14.3133 34.9533 14.56 34.9 14.8C34.8467 15.0267 34.7867 15.2533 34.72 15.48C34.6667 15.6933 34.6133 15.9133 34.56 16.14C34.5067 16.3667 34.48 16.5933 34.48 16.82C34.48 17.62 34.82 18.14 35.5 18.38C35.5933 18.42 35.6667 18.4667 35.72 18.52C35.7733 18.56 35.8 18.64 35.8 18.76C35.8 18.88 35.76 19.0533 35.68 19.28C35.6133 19.5067 35.4733 19.72 35.26 19.92C35.0467 20.1067 34.74 20.2 34.34 20.2C33.82 20.2 33.42 20.0133 33.14 19.64C32.86 19.2533 32.72 18.7667 32.72 18.18C32.72 17.8867 32.7467 17.58 32.8 17.26C32.8533 16.94 32.92 16.6333 33 16.34C33.0667 16.0733 33.12 15.82 33.16 15.58C33.2133 15.34 33.24 15.1333 33.24 14.96C33.24 14.64 33.16 14.4067 33 14.26C32.8533 14.1133 32.6533 14.04 32.4 14.04C31.9733 14.04 31.5867 14.1733 31.24 14.44C30.9067 14.7067 30.6067 15.0533 30.34 15.48C30.0867 15.9067 29.8667 16.3733 29.68 16.88C29.6933 17 29.7 17.16 29.7 17.36C29.7133 17.5467 29.72 17.7133 29.72 17.86C29.72 18.1133 29.7 18.38 29.66 18.66C29.6333 18.94 29.5733 19.1733 29.48 19.36C29.3733 19.6133 29.2133 19.82 29 19.98C28.8 20.14 28.5267 20.22 28.18 20.22C28.0333 20.22 27.8933 20.1867 27.76 20.12C27.6267 20.0667 27.56 19.9733 27.56 19.84C27.56 19.7867 27.6 19.5533 27.68 19.14C27.76 18.7133 27.84 18.1933 27.92 17.58C28 16.9667 28.04 16.3667 28.04 15.78C28.04 15.14 27.9733 14.7 27.84 14.46C27.7067 14.2067 27.5067 14.08 27.24 14.08C26.9067 14.08 26.5867 14.22 26.28 14.5C25.9867 14.78 25.7133 15.14 25.46 15.58C25.22 16.02 25.0067 16.48 24.82 16.96C24.6467 17.44 24.5067 17.8867 24.4 18.3V18.52C24.4 19.0133 24.26 19.42 23.98 19.74C23.7133 20.06 23.3467 20.22 22.88 20.22Z" fill="#0097A7"/>
<path d="M22.24 19.74L21.2712 19.4922L21.2606 19.5335L21.2536 19.5756L22.24 19.74ZM22.6 18L21.6154 17.825L21.6138 17.8339L21.6124 17.8429L22.6 18ZM22.62 14.74L21.6476 14.9734L21.6532 14.9968L21.66 15.02L22.62 14.74ZM22.28 14.06L21.6073 14.7999L21.6266 14.8175L21.6468 14.834L22.28 14.06ZM21.74 13.76L21.3461 14.6791L21.393 14.6993L21.4417 14.7145L21.74 13.76ZM21.48 13.6L20.7729 14.3071L20.805 14.3392L20.8398 14.3682L21.48 13.6ZM21.6 12.7L22.4396 13.2433L22.4396 13.2433L21.6 12.7ZM22.22 12.12L22.7345 12.9776L22.7464 12.9703L22.22 12.12ZM24.1 12.34L23.2207 12.8163L23.225 12.8242L23.2294 12.8321L24.1 12.34ZM24.26 14.68L23.2728 14.5208L23.2728 14.5208L24.26 14.68ZM24.06 15.8L23.0794 15.6039L22.9296 16.3528L23.6128 16.6944L24.06 15.8ZM24.1 15.82L23.6528 16.7144L24.7143 17.2452L25.0573 16.109L24.1 15.82ZM24.88 13.86L23.9976 13.3894L23.9935 13.3971L23.9896 13.4049L24.88 13.86ZM26.02 12.4L25.3843 11.6281L25.3786 11.6327L25.373 11.6375L26.02 12.4ZM29 12.46L28.2338 13.1026L28.239 13.1088L28.2443 13.1149L29 12.46ZM29.52 14.68H28.52L30.4231 15.1094L29.52 14.68ZM30.92 12.64L30.2214 11.9244L30.2129 11.9329L30.92 12.64ZM34.44 12.46L33.6757 13.1049L33.6757 13.1049L34.44 12.46ZM34.9 14.8L35.8735 15.0291L35.8762 15.0169L34.9 14.8ZM34.72 15.48L33.7606 15.1978L33.7548 15.2175L33.7499 15.2375L34.72 15.48ZM34.56 16.14L35.5334 16.369L35.5334 16.369L34.56 16.14ZM35.5 18.38L35.8939 17.4609L35.8638 17.4479L35.8328 17.437L35.5 18.38ZM35.72 18.52L35.0129 19.2271L35.0631 19.2774L35.12 19.32L35.72 18.52ZM35.68 19.28L34.737 18.9472L34.7281 18.9723L34.7206 18.9978L35.68 19.28ZM35.26 19.92L35.9185 20.6726L35.9314 20.6613L35.9439 20.6495L35.26 19.92ZM33.14 19.64L32.3301 20.2265L32.335 20.2333L32.34 20.24L33.14 19.64ZM33 16.34L33.9648 16.6031L33.9676 16.5929L33.9701 16.5825L33 16.34ZM33.16 15.58L32.1838 15.3631L32.178 15.3892L32.1736 15.4156L33.16 15.58ZM33 14.26L32.2929 14.9671L32.3083 14.9825L32.3243 14.9972L33 14.26ZM31.24 14.44L30.6303 13.6474L30.6227 13.6532L30.6153 13.6591L31.24 14.44ZM30.34 15.48L29.492 14.95L29.486 14.9597L29.4801 14.9695L30.34 15.48ZM29.68 16.88L28.7417 16.5343L28.66 16.7558L28.6861 16.9904L29.68 16.88ZM29.7 17.36H28.7V17.3957L28.7025 17.4312L29.7 17.36ZM29.66 18.66L28.6701 18.5186L28.6667 18.5418L28.6645 18.5652L29.66 18.66ZM29.48 19.36L28.5856 18.9128L28.571 18.9419L28.5584 18.9719L29.48 19.36ZM29 19.98L28.4 19.18L28.3875 19.1894L28.3753 19.1991L29 19.98ZM27.76 20.12L28.2072 19.2256L28.17 19.207L28.1314 19.1915L27.76 20.12ZM27.68 19.14L28.6618 19.33L28.6629 19.3243L27.68 19.14ZM27.84 14.46L26.9551 14.9257L26.9603 14.9358L26.9658 14.9456L27.84 14.46ZM26.28 14.5L25.6057 13.7615L25.5975 13.769L25.5895 13.7766L26.28 14.5ZM25.46 15.58L24.5934 15.081L24.5876 15.091L24.5821 15.1011L25.46 15.58ZM24.82 16.96L23.888 16.5976L23.8836 16.6089L23.8794 16.6204L24.82 16.96ZM24.4 18.3L23.4317 18.0501L23.4 18.173V18.3H24.4ZM23.98 19.74L23.2274 19.0815L23.2195 19.0906L23.2118 19.0998L23.98 19.74ZM22.88 19.22C22.8113 19.22 22.7873 19.2139 22.7949 19.2156C22.801 19.217 22.8712 19.2334 22.96 19.3C23.0601 19.3751 23.1508 19.49 23.1987 19.6338C23.2428 19.7661 23.2325 19.8677 23.2264 19.9044L21.2536 19.5756C21.1815 20.0083 21.2842 20.5431 21.76 20.9C22.1312 21.1784 22.5759 21.22 22.88 21.22V19.22ZM23.2088 19.9878C23.3632 19.3845 23.4894 18.7742 23.5876 18.1571L21.6124 17.8429C21.5239 18.3992 21.4102 18.9489 21.2712 19.4922L23.2088 19.9878ZM23.5846 18.175C23.7003 17.5237 23.76 16.8916 23.76 16.28H21.76C21.76 16.7617 21.713 17.2763 21.6154 17.825L23.5846 18.175ZM23.76 16.28C23.76 15.5599 23.7157 14.9253 23.58 14.46L21.66 15.02C21.711 15.1947 21.76 15.5867 21.76 16.28H23.76ZM23.5924 14.5066C23.4976 14.1119 23.3189 13.618 22.9132 13.286L21.6468 14.834C21.5808 14.78 21.5668 14.7397 21.5806 14.7672C21.5937 14.7934 21.6196 14.8566 21.6476 14.9734L23.5924 14.5066ZM22.9527 13.3201C22.6853 13.077 22.3727 12.91 22.0383 12.8055L21.4417 14.7145C21.5339 14.7433 21.5813 14.7763 21.6073 14.7999L22.9527 13.3201ZM22.1339 12.8409C22.1318 12.84 22.1277 12.8381 22.1202 12.8318L20.8398 14.3682C20.9923 14.4953 21.1615 14.6 21.3461 14.6791L22.1339 12.8409ZM22.1871 12.8929C22.2638 12.9696 22.3162 13.0582 22.3467 13.1437C22.3758 13.225 22.38 13.2888 22.38 13.32H20.38C20.38 13.6293 20.4711 14.0053 20.7729 14.3071L22.1871 12.8929ZM22.38 13.32C22.38 13.3586 22.3724 13.3737 22.3774 13.3594C22.3829 13.344 22.3992 13.3056 22.4396 13.2433L20.7604 12.1567C20.5534 12.4767 20.38 12.8726 20.38 13.32H22.38ZM22.4396 13.2433C22.4915 13.1629 22.5789 13.0709 22.7345 12.9775L21.7055 11.2625C21.3278 11.4891 21.0018 11.7837 20.7604 12.1567L22.4396 13.2433ZM22.7464 12.9703C22.8597 12.9001 22.989 12.86 23.16 12.86V10.86C22.6376 10.86 22.1403 10.9933 21.6936 11.2697L22.7464 12.9703ZM23.16 12.86C23.2727 12.86 23.2991 12.8802 23.2802 12.8706C23.2701 12.8655 23.2557 12.8559 23.2415 12.842C23.2276 12.8282 23.2214 12.8175 23.2207 12.8163L24.9793 11.8637C24.5857 11.1371 23.8739 10.86 23.16 10.86V12.86ZM23.2294 12.8321C23.2888 12.937 23.36 13.1548 23.36 13.56H25.36C25.36 12.9519 25.2579 12.3563 24.9706 11.8479L23.2294 12.8321ZM23.36 13.56C23.36 13.8285 23.333 14.1474 23.2728 14.5208L25.2472 14.8392C25.3204 14.3859 25.36 13.9581 25.36 13.56H23.36ZM23.2728 14.5208C23.2076 14.9245 23.1432 15.2852 23.0794 15.6039L25.0406 15.9961C25.1102 15.6481 25.179 15.2622 25.2472 14.8392L23.2728 14.5208ZM23.6128 16.6944L23.6528 16.7144L24.5472 14.9256L24.5072 14.9056L23.6128 16.6944ZM25.0573 16.109C25.255 15.4542 25.4934 14.8571 25.7704 14.3151L23.9896 13.4049C23.6532 14.0629 23.3717 14.7724 23.1427 15.531L25.0573 16.109ZM25.7624 14.3306C26.0334 13.8224 26.3387 13.4411 26.667 13.1625L25.373 11.6375C24.8213 12.1056 24.3666 12.6976 23.9976 13.3894L25.7624 14.3306ZM26.6557 13.1719C26.9302 12.9459 27.2255 12.84 27.58 12.84V10.84C26.7611 10.84 26.0165 11.1075 25.3843 11.6281L26.6557 13.1719ZM27.58 12.84C27.9217 12.84 28.0999 12.943 28.2338 13.1026L29.7662 11.8174C29.2067 11.1503 28.4383 10.84 27.58 10.84V12.84ZM28.2443 13.1149C28.3722 13.2625 28.52 13.5803 28.52 14.24H30.52C30.52 13.3264 30.3211 12.4575 29.7557 11.8051L28.2443 13.1149ZM28.52 14.24V14.68H30.52V14.24H28.52ZM30.4231 15.1094C30.7687 14.3825 31.1732 13.801 31.6271 13.3471L30.2129 11.9329C29.5734 12.5724 29.0446 13.3509 28.6169 14.2506L30.4231 15.1094ZM31.6185 13.3556C31.9907 12.9923 32.4129 12.82 32.94 12.82V10.82C31.8938 10.82 30.9693 11.1943 30.2215 11.9244L31.6185 13.3556ZM32.94 12.82C33.3335 12.82 33.5347 12.9378 33.6757 13.1049L35.2043 11.8151C34.6253 11.1289 33.8265 10.82 32.94 10.82V12.82ZM33.6757 13.1049C33.8615 13.325 33.98 13.6194 33.98 14.06H35.98C35.98 13.2206 35.7386 12.4483 35.2043 11.8151L33.6757 13.1049ZM33.98 14.06C33.98 14.2426 33.9608 14.4164 33.9238 14.5831L35.8762 15.0169C35.9458 14.7036 35.98 14.3841 35.98 14.06H33.98ZM33.9266 14.571C33.8775 14.7795 33.8222 14.9885 33.7606 15.1978L35.6794 15.7622C35.7511 15.5182 35.8158 15.2738 35.8734 15.029L33.9266 14.571ZM33.7499 15.2375C33.6953 15.4555 33.6409 15.68 33.5866 15.911L35.5334 16.369C35.5858 16.1466 35.638 15.9311 35.6901 15.7225L33.7499 15.2375ZM33.5866 15.911C33.5161 16.2106 33.48 16.5141 33.48 16.82H35.48C35.48 16.6725 35.4973 16.5227 35.5334 16.369L33.5866 15.911ZM33.48 16.82C33.48 17.359 33.5949 17.8937 33.898 18.3572C34.2068 18.8294 34.6549 19.1422 35.1672 19.323L35.8328 17.437C35.6651 17.3778 35.6032 17.3106 35.572 17.2628C35.5351 17.2063 35.48 17.081 35.48 16.82H33.48ZM35.1061 19.2991C35.1112 19.3013 35.1038 19.2986 35.0881 19.2887C35.0723 19.2786 35.0449 19.2591 35.0129 19.2271L36.4271 17.8129C36.2585 17.6443 36.0661 17.5347 35.8939 17.4609L35.1061 19.2991ZM35.12 19.32C34.9455 19.1891 34.8652 19.028 34.8313 18.9262C34.7996 18.8311 34.8 18.7659 34.8 18.76H36.8C36.8 18.566 36.7698 18.0574 36.32 17.72L35.12 19.32ZM34.8 18.76C34.8 18.7358 34.8019 18.7231 34.8017 18.7249C34.8015 18.7261 34.8001 18.7358 34.7956 18.7551C34.7864 18.7951 34.7685 18.8578 34.737 18.9472L36.623 19.6128C36.7107 19.3643 36.8 19.0577 36.8 18.76H34.8ZM34.7206 18.9978C34.7149 19.0172 34.69 19.0836 34.5761 19.1905L35.9439 20.6495C36.2566 20.3564 36.5117 19.9961 36.6394 19.5622L34.7206 18.9978ZM34.6015 19.1674C34.6331 19.1397 34.5966 19.2 34.34 19.2V21.2C34.8834 21.2 35.4602 21.0736 35.9185 20.6726L34.6015 19.1674ZM34.34 19.2C34.0934 19.2 34.0076 19.1302 33.94 19.04L32.34 20.24C32.8324 20.8965 33.5466 21.2 34.34 21.2V19.2ZM33.9499 19.0535C33.8194 18.8732 33.72 18.605 33.72 18.18H31.72C31.72 18.9283 31.9006 19.6334 32.3301 20.2265L33.9499 19.0535ZM33.72 18.18C33.72 17.9472 33.7412 17.6957 33.7864 17.4244L31.8136 17.0956C31.7522 17.4643 31.72 17.8262 31.72 18.18H33.72ZM33.7864 17.4244C33.8346 17.1355 33.8942 16.8619 33.9648 16.6031L32.0352 16.0769C31.9458 16.4048 31.8721 16.7445 31.8136 17.0956L33.7864 17.4244ZM33.9701 16.5825C34.0425 16.2933 34.1015 16.0138 34.1464 15.7444L32.1736 15.4156C32.1385 15.6262 32.0909 15.8534 32.0299 16.0975L33.9701 16.5825ZM34.1362 15.7969C34.1993 15.5127 34.24 15.2296 34.24 14.96H32.24C32.24 15.0371 32.2273 15.1673 32.1838 15.3631L34.1362 15.7969ZM34.24 14.96C34.24 14.4938 34.1239 13.9337 33.6757 13.5228L32.3243 14.9972C32.2967 14.9718 32.2752 14.945 32.2595 14.9202C32.2442 14.896 32.2368 14.8775 32.2341 14.8693C32.2294 14.8558 32.24 14.8793 32.24 14.96H34.24ZM33.7071 13.5529C33.3329 13.1787 32.8561 13.04 32.4 13.04V15.04C32.4309 15.04 32.4247 15.0445 32.3957 15.0339C32.3632 15.0219 32.3251 14.9993 32.2929 14.9671L33.7071 13.5529ZM32.4 13.04C31.7469 13.04 31.147 13.2499 30.6303 13.6474L31.8497 15.2326C32.0263 15.0968 32.1998 15.04 32.4 15.04V13.04ZM30.6153 13.6591C30.1798 14.0076 29.808 14.4444 29.492 14.95L31.188 16.01C31.4053 15.6623 31.6336 15.4058 31.8647 15.2209L30.6153 13.6591ZM29.4801 14.9695C29.1931 15.4529 28.9476 15.9754 28.7417 16.5343L30.6183 17.2257C30.7858 16.7713 30.9802 16.3604 31.1999 15.9905L29.4801 14.9695ZM28.6861 16.9904C28.6936 17.0578 28.7 17.1764 28.7 17.36H30.7C30.7 17.1436 30.6931 16.9422 30.6739 16.7696L28.6861 16.9904ZM28.7025 17.4312C28.7146 17.6003 28.72 17.7425 28.72 17.86H30.72C30.72 17.6841 30.7121 17.493 30.6975 17.2888L28.7025 17.4312ZM28.72 17.86C28.72 18.0609 28.7041 18.2801 28.6701 18.5186L30.65 18.8014C30.6959 18.4799 30.72 18.1657 30.72 17.86H28.72ZM28.6645 18.5652C28.6457 18.7625 28.6083 18.8674 28.5856 18.9128L30.3744 19.8072C30.5384 19.4793 30.621 19.1175 30.6555 18.7548L28.6645 18.5652ZM28.5584 18.9719C28.5183 19.0671 28.467 19.1297 28.4 19.18L29.6 20.78C29.9597 20.5103 30.2284 20.1595 30.4016 19.7481L28.5584 18.9719ZM28.3753 19.1991C28.4063 19.1743 28.3795 19.22 28.18 19.22V21.22C28.6738 21.22 29.1937 21.1057 29.6247 20.7609L28.3753 19.1991ZM28.18 19.22C28.1832 19.22 28.1893 19.2204 28.1966 19.2222C28.2039 19.2239 28.2077 19.2258 28.2072 19.2256L27.3128 21.0144C27.5826 21.1493 27.8755 21.22 28.18 21.22V19.22ZM28.1314 19.1915C28.1977 19.2181 28.3209 19.2848 28.4237 19.4288C28.5304 19.5781 28.56 19.7332 28.56 19.84H26.56C26.56 20.0801 26.6229 20.3486 26.7963 20.5912C26.9658 20.8286 27.189 20.9686 27.3886 21.0485L28.1314 19.1915ZM28.56 19.84C28.56 19.8656 28.5589 19.8849 28.5583 19.8937C28.5576 19.9036 28.557 19.9104 28.5567 19.9127C28.5563 19.917 28.5564 19.9151 28.5579 19.9044C28.5609 19.8833 28.5664 19.8476 28.5756 19.794C28.5938 19.6877 28.6223 19.5342 28.6618 19.33L26.6982 18.95C26.6577 19.1592 26.6262 19.3289 26.6044 19.456C26.5908 19.5353 26.56 19.7075 26.56 19.84H28.56ZM28.6629 19.3243C28.7474 18.8736 28.8301 18.3341 28.9116 17.7093L26.9284 17.4507C26.8499 18.0526 26.7726 18.5531 26.6971 18.9557L28.6629 19.3243ZM28.9116 17.7093C28.9969 17.0554 29.04 16.4122 29.04 15.78H27.04C27.04 16.3212 27.0031 16.8779 26.9284 17.4507L28.9116 17.7093ZM29.04 15.78C29.04 15.4296 29.022 15.1061 28.9787 14.8202C28.9372 14.5462 28.8635 14.2431 28.7142 13.9744L26.9658 14.9456C26.9499 14.9169 26.9761 14.9538 27.0013 15.1198C27.0246 15.2739 27.04 15.4904 27.04 15.78H29.04ZM28.7249 13.9943C28.5938 13.7451 28.4009 13.5049 28.1251 13.3302C27.8454 13.1531 27.5381 13.08 27.24 13.08V15.08C27.2085 15.08 27.1346 15.0703 27.0549 15.0198C26.9791 14.9718 26.9529 14.9215 26.9551 14.9257L28.7249 13.9943ZM27.24 13.08C26.5998 13.08 26.0494 13.3564 25.6057 13.7615L26.9543 15.2385C27.1239 15.0836 27.2135 15.08 27.24 15.08V13.08ZM25.5895 13.7766C25.2122 14.1368 24.883 14.5781 24.5934 15.081L26.3266 16.079C26.5437 15.7019 26.7611 15.4232 26.9705 15.2234L25.5895 13.7766ZM24.5821 15.1011C24.321 15.5798 24.0898 16.0787 23.888 16.5976L25.752 17.3224C25.9236 16.8813 26.119 16.4602 26.3379 16.0589L24.5821 15.1011ZM23.8794 16.6204C23.6975 17.1243 23.5476 17.6013 23.4317 18.0501L25.3683 18.5499C25.4658 18.1721 25.5959 17.7557 25.7606 17.2996L23.8794 16.6204ZM23.4 18.3V18.52H25.4V18.3H23.4ZM23.4 18.52C23.4 18.8123 23.3228 18.9725 23.2274 19.0815L24.7326 20.3985C25.1972 19.8675 25.4 19.2144 25.4 18.52H23.4ZM23.2118 19.0998C23.1594 19.1626 23.0901 19.22 22.88 19.22V21.22C23.6032 21.22 24.2672 20.9574 24.7482 20.3802L23.2118 19.0998Z" fill="#0097A7"/>
</svg>
